<svg width="1098px" height="300px" version="1.1" xmlns="http://www.w3.org/2000/svg" xmlns:xlink="http://www.w3.org/1999/xlink" xmlns:mei="http://www.music-encoding.org/ns/mei" overflow="visible">
   <desc>Engraved by Verovio 4.4.0-dev-73f28d6</desc>
   <defs>
      <symbol id="E082-124ayja" viewBox="0 0 1000 1000" overflow="inherit">
         <path transform="scale(1,-1)" d="M124 -185c-18 0 -55 -14 -65 -65h-36l-3 30c0 25 6 45 18 63c11 19 22 30 39 43l121 82l37 29c15 11 27 29 38 54c12 24 18 47 18 70c0 40 -19 88 -94 88c-25 0 -32 0 -50 -8c-14 -5 -23 -12 -26 -22c3 -9 7 -15 10 -18l24 -17c12 -7 17 -11 27 -21c5 -7 7 -16 7 -27 c0 -12 0 -57 -79 -74c-30 0 -76 26 -76 94c0 66 81 135 197 135c72 0 181 -32 181 -150c0 -53 -32 -95 -113 -133l-91 -41c-26 -11 -45 -23 -57 -37l49 7c84 0 115 -41 148 -41c20 0 33 20 39 61h35c0 -152 -68 -168 -114 -168c-17 0 -65 0 -79 7h10l-28 17 c-49 37 -69 40 -87 42z"/>
      </symbol>
      <symbol id="E084-124ayja" viewBox="0 0 1000 1000" overflow="inherit">
         <path transform="scale(1,-1)" d="M20 -78c84 97 114 180 134 329h170c-13 -32 -82 -132 -99 -151l-84 -97c-33 -36 -59 -63 -80 -81h162v102l127 123v-225h57v-39h-57v-34c0 -43 19 -65 57 -65v-34h-244v36c48 0 60 26 60 70v27h-203v39z"/>
      </symbol>
      <symbol id="E0A4-124ayja" viewBox="0 0 1000 1000" overflow="inherit">
         <path transform="scale(1,-1)" d="M0 -39c0 68 73 172 200 172c66 0 114 -37 114 -95c0 -84 -106 -171 -218 -171c-64 0 -96 30 -96 94z"/>
      </symbol>
      <symbol id="E050-124ayja" viewBox="0 0 1000 1000" overflow="inherit">
         <path transform="scale(1,-1)" d="M441 -245c-23 -4 -48 -6 -76 -6c-59 0 -102 7 -130 20c-88 42 -150 93 -187 154c-26 44 -43 103 -48 176c0 6 -1 13 -1 19c0 54 15 111 45 170c29 57 65 106 110 148s96 85 153 127c-3 16 -8 46 -13 92c-4 43 -5 73 -5 89c0 117 16 172 69 257c34 54 64 82 89 82 c21 0 43 -30 69 -92s39 -115 41 -159v-15c0 -109 -21 -162 -67 -241c-13 -20 -63 -90 -98 -118c-13 -9 -25 -19 -37 -29l31 -181c8 1 18 2 28 2c58 0 102 -12 133 -35c59 -43 92 -104 98 -184c1 -7 1 -15 1 -22c0 -123 -87 -209 -181 -248c8 -57 17 -110 25 -162 c5 -31 6 -58 6 -80c0 -30 -5 -53 -14 -70c-35 -64 -88 -99 -158 -103c-5 0 -11 -1 -16 -1c-37 0 -72 10 -108 27c-50 24 -77 59 -80 105v11c0 29 7 55 20 76c18 28 45 42 79 44h6c49 0 93 -42 97 -87v-9c0 -51 -34 -86 -105 -106c17 -24 51 -36 102 -36c62 0 116 43 140 85 c9 16 13 41 13 74c0 20 -1 42 -5 67c-8 53 -18 106 -26 159zM461 939c-95 0 -135 -175 -135 -286c0 -24 2 -48 5 -71c50 39 92 82 127 128c40 53 60 100 60 140v8c-4 53 -22 81 -55 81h-2zM406 119l54 -326c73 25 110 78 110 161c0 7 0 15 -1 23c-7 95 -57 142 -151 142h-12 zM382 117c-72 -2 -128 -47 -128 -120v-7c2 -46 43 -99 75 -115c-3 -2 -7 -5 -10 -10c-70 33 -116 88 -123 172v11c0 68 44 126 88 159c23 17 49 29 78 36l-29 170c-21 -13 -52 -37 -92 -73c-50 -44 -86 -84 -109 -119c-45 -69 -67 -130 -67 -182v-13c5 -68 35 -127 93 -176 s125 -73 203 -73c25 0 50 3 75 9c-19 111 -36 221 -54 331z"/>
      </symbol>
      <symbol id="E260-124ayja" viewBox="0 0 1000 1000" overflow="inherit">
         <path transform="scale(1,-1)" d="M20 110c32 16 54 27 93 27c26 0 35 -3 54 -13c13 -7 24 -20 27 -38l4 -25c0 -28 -16 -57 -45 -89c-23 -25 -39 -44 -65 -68l-88 -79v644h20v-359zM90 106c-32 0 -48 -10 -70 -29v-194c31 31 54 59 71 84c21 32 32 59 32 84c0 9 1 16 1 20c0 14 -3 21 -11 30l-8 3z"/>
      </symbol>
   </defs>
   <style type="text/css">g.page-margin{font-family:Times,serif;} g.ending, g.fing, g.reh, g.tempo{font-weight:bold;} g.dir, g.dynam, g.mNum{font-style:italic;} g.label{font-weight:normal;}</style>
   <svg class="definition-scale" color="black" viewBox="0 0 27450 7490">
      <g class="page-margin" transform="translate(1000, 3000)">
         <g data-id="x757217f4-7135-499a-8aac-d27ccfba4eb5" data-class="mdiv" class="mdiv pageMilestone">
            <g data-id="bbox-x757217f4-7135-499a-8aac-d27ccfba4eb5" data-class="mdiv" class="mdiv bounding-box"/>
         </g>
         <g data-id="s1ikmwkj" data-class="score" class="score pageMilestone">
            <g data-id="bbox-s1ikmwkj" data-class="score" class="score bounding-box"/>
         </g>
         <g data-id="s1tnyoh7" data-class="system" class="system">
            <g data-id="bbox-s1tnyoh7" data-class="system" class="system bounding-box"/>
            <g data-id="xe9e51863-c98d-46f2-b192-5a8f5d95b912" data-class="section" class="section systemMilestone"/>
            <g data-id="p420s02" data-class="pb" class="pb"/>
            <g data-id="sxoe0uc" data-class="sb" class="sb"/>
            <g data-id="xda0d2473-6b89-44d0-82ee-a68b7321d0cb" data-class="measure" class="measure">
               <g data-id="bbox-xda0d2473-6b89-44d0-82ee-a68b7321d0cb" data-class="measure" class="measure bounding-box"/>
               <g data-id="x2597e762-8783-4a9f-9eac-4aaf61029422" data-class="staff" class="staff">
                  <g data-id="bbox-x2597e762-8783-4a9f-9eac-4aaf61029422" data-class="staff" class="staff bounding-box">
                     <rect x="-5" y="403" height="554" width="3348" fill="transparent"/>
                  </g>
                  <path d="M-802 408 L4140 408" stroke="currentColor" stroke-width="10"><animate id="sed1f1c48-aed7-4fff-b408-b4048ef1093f" attributeName="d" values="M-802 408 L4140 408;M0 408 L3338 408;M0 408 L3338 408;M0 408 L3338 408;M0 408 L3338 408;M0 408 L3338 408;M-802 408 L4140 408" repeatCount="indefinite" dur="10s"/></path>
                  <path d="M-802 544 L4140 544" stroke="currentColor" stroke-width="10"><animate id="s72f765f1-3b07-433f-9097-cc359de11a88" attributeName="d" values="M-802 544 L4140 544;M0 544 L3338 544;M0 544 L3338 544;M0 544 L3338 544;M0 544 L3338 544;M0 544 L3338 544;M-802 544 L4140 544" repeatCount="indefinite" dur="10s"/></path>
                  <path d="M-802 680 L4140 680" stroke="currentColor" stroke-width="10"><animate id="s9834a52e-1e11-4414-a52f-8ce4c6ce3fbe" attributeName="d" values="M-802 680 L4140 680;M0 680 L3338 680;M0 680 L3338 680;M0 680 L3338 680;M0 680 L3338 680;M0 680 L3338 680;M-802 680 L4140 680" repeatCount="indefinite" dur="10s"/></path>
                  <path d="M-802 816 L4140 816" stroke="currentColor" stroke-width="10"><animate id="se06bea92-1a27-42ee-af49-c9e12ce4ceb5" attributeName="d" values="M-802 816 L4140 816;M0 816 L3338 816;M0 816 L3338 816;M0 816 L3338 816;M0 816 L3338 816;M0 816 L3338 816;M-802 816 L4140 816" repeatCount="indefinite" dur="10s"/></path>
                  <path d="M-802 952 L4140 952" stroke="currentColor" stroke-width="10"><animate id="sefee548c-c729-4988-91b5-662699c96715" attributeName="d" values="M-802 952 L4140 952;M0 952 L3338 952;M0 952 L3338 952;M0 952 L3338 952;M0 952 L3338 952;M0 952 L3338 952;M-802 952 L4140 952" repeatCount="indefinite" dur="10s"/></path>
                  <g data-id="ctadjnp" data-class="clef" class="clef supplied" fill="#009900" stroke="#009900">
                     <g data-id="bbox-ctadjnp" data-class="clef" class="clef bounding-box">
                        <rect x="68" y="224" height="950" width="353" fill="transparent"/>
                     </g>
                     <use href="#E050-124ayja" x="68" y="816" height="547px" width="547px"/>
                  <animate id="s0b5f9d29-0c41-4fe1-a01d-da3b511e1e03" attributeName="opacity" values="0;0;1;1;1;0;0" dur="10s" repeatCount="indefinite"/></g>
                  <g data-id="k197vjmv" data-class="keySig" class="keySig supplied" fill="#009900" stroke="#009900">
                     <g data-id="bbox-k197vjmv" data-class="keySig" class="keySig bounding-box">
                        <rect x="557" y="423" height="352" width="108" fill="transparent"/>
                     </g>
                     <g data-id="k1ovo8y9" data-class="keyAccid" class="keyAccid">
                        <use href="#E260-124ayja" x="557" y="680" height="547px" width="547px"/>
                     </g>
                  <animate id="s29d9ce59-9c41-4ea6-a959-60bc1f6d2b28" attributeName="opacity" values="0;0;1;1;1;0;0" dur="10s" repeatCount="indefinite"/></g>
                  <g data-id="muavqpd" data-class="meterSig" class="meterSig supplied" fill="#009900" stroke="#009900">
                     <g data-id="bbox-muavqpd" data-class="meterSig" class="meterSig bounding-box">
                        <rect x="801" y="407" height="545" width="219" fill="transparent"/>
                     </g>
                     <use href="#E082-124ayja" x="791" y="544" height="547px" width="547px"/>
                     <use href="#E084-124ayja" x="795" y="816" height="547px" width="547px"/>
                  <animate id="sa16998ae-de21-44a3-ae06-ea08611a4b18" attributeName="opacity" values="0;0;1;1;1;0;0" dur="10s" repeatCount="indefinite"/></g>
                  <g data-id="x59aa7b81-1e52-491c-a2be-7b92edbc456a" data-class="layer" class="layer">
                     <g data-id="bbox-x59aa7b81-1e52-491c-a2be-7b92edbc456a" data-class="layer" class="layer bounding-box"/>
                     <g data-id="x3f9040d1-a7fe-46f2-88a1-553dcc8e3a5b" data-class="beam" class="beam">
                        <g data-id="bbox-x3f9040d1-a7fe-46f2-88a1-553dcc8e3a5b" data-class="beam" class="beam bounding-box">
                           <rect x="1225" y="1292" height="170" width="762" fill="transparent"/>
                        </g>
                        <polygon points="1225,1462 1987,1462 1987,1394 1225,1394"><animate id="se7facfac-550d-4db5-b8b3-e637745891ce" attributeName="points" values="449,1462 1451,1462 1451,1394 449,1394;1225,1462,1987,1462,1987,1394,1225,1394;1225,1462,1987,1462,1987,1394,1225,1394;1225,1462,1987,1462,1987,1394,1225,1394;1225,1462,1987,1462,1987,1394,1225,1394;1225,1462,1987,1462,1987,1394,1225,1394;449,1462 1451,1462 1451,1394 449,1394" repeatCount="indefinite" dur="10s"/></polygon>
                        <polygon points="1681,1360 1987,1360 1987,1292 1681,1292"><animate id="sadc370f9-3ffd-4c3a-b726-4f8fd5206f42" attributeName="points" values="995,1360 1451,1360 1451,1292 995,1292;1681,1360,1987,1360,1987,1292,1681,1292;1681,1360,1987,1360,1987,1292,1681,1292;1681,1360,1987,1360,1987,1292,1681,1292;1681,1360,1987,1360,1987,1292,1681,1292;1681,1360,1987,1360,1987,1292,1681,1292;995,1360 1451,1360 1451,1292 995,1292" repeatCount="indefinite" dur="10s"/></polygon>
                        <g data-id="x8ac2f938-33e4-43c4-8826-d3da4c157c72" data-class="note" class="note">
                           <g data-id="bbox-x8ac2f938-33e4-43c4-8826-d3da4c157c72" data-class="note" class="note bounding-box">
                              <rect x="1225" y="947" height="145" width="171" fill="transparent"/>
                           </g>
                           <g data-class="notehead" class="notehead">
                              <use href="#E0A4-124ayja" x="1225" y="1020" height="547px" width="547px"/>
                           </g>
                           <g data-id="s1j8lgz7" data-class="stem" class="stem">
                              <g data-id="bbox-s1j8lgz7" data-class="stem" class="stem bounding-box">
                                 <rect x="1224" y="1035" height="421" width="13" fill="transparent"/>
                              </g>
                              <path d="M1231 1041 L1231 1449" stroke="currentColor" stroke-width="13"><animate id="sc4c6c548-4ef1-444a-ae10-2a52d24fcb4d" attributeName="d" values="M1231 1041 L1231 1449;M1231 1041 L1231 1449;M1231 1041 L1231 1449;M1231 1041 L1231 1449;M1231 1041 L1231 1449;M1231 1041 L1231 1449;M1231 1041 L1231 1449" repeatCount="indefinite" dur="10s"/></path>
                           </g>
                        <animateTransform id="sec1c0096-c58a-4a7d-bc84-696365ac7cb9" attributeName="transform" attributeType="XML" type="translate" values="-776 0;0 0;0 0;0 0;0 0;0 0;-776 0" repeatCount="indefinite" dur="10s"/></g>
                        <g data-id="x251b1ec3-b531-4c1d-b03d-7f9082568f75" data-class="note" class="note">
                           <g data-id="bbox-x251b1ec3-b531-4c1d-b03d-7f9082568f75" data-class="note" class="note bounding-box">
                              <rect x="1675" y="947" height="145" width="171" fill="transparent"/>
                           </g>
                           <g data-class="notehead" class="notehead">
                              <use href="#E0A4-124ayja" x="1675" y="1020" height="547px" width="547px"/>
                           </g>
                           <g data-id="s13m14be" data-class="stem" class="stem">
                              <g data-id="bbox-s13m14be" data-class="stem" class="stem bounding-box">
                                 <rect x="1674" y="1035" height="421" width="13" fill="transparent"/>
                              </g>
                              <path d="M1681 1041 L1681 1449" stroke="currentColor" stroke-width="13"><animate id="s446bee9c-44d8-4e82-8d2c-3439b9a40ff1" attributeName="d" values="M1681 1041 L1681 1449;M1681 1041 L1681 1449;M1681 1041 L1681 1449;M1681 1041 L1681 1449;M1681 1041 L1681 1449;M1681 1041 L1681 1449;M1681 1041 L1681 1449" repeatCount="indefinite" dur="10s"/></path>
                           </g>
                        <animateTransform id="se4a7c988-a57c-4a93-a0b9-a869c7919059" attributeName="transform" attributeType="XML" type="translate" values="-686 0;0 0;0 0;0 0;0 0;0 0;-686 0" repeatCount="indefinite" dur="10s"/></g>
                        <g data-id="x65ddf5a7-30a7-4847-8cd2-4e78e9a38d24" data-class="note" class="note">
                           <g data-id="bbox-x65ddf5a7-30a7-4847-8cd2-4e78e9a38d24" data-class="note" class="note bounding-box">
                              <rect x="1975" y="947" height="145" width="171" fill="transparent"/>
                           </g>
                           <g data-class="notehead" class="notehead">
                              <use href="#E0A4-124ayja" x="1975" y="1020" height="547px" width="547px"/>
                           </g>
                           <g data-id="snbo0at" data-class="stem" class="stem">
                              <g data-id="bbox-snbo0at" data-class="stem" class="stem bounding-box">
                                 <rect x="1974" y="1035" height="421" width="13" fill="transparent"/>
                              </g>
                              <path d="M1981 1041 L1981 1449" stroke="currentColor" stroke-width="13"><animate id="sf873960d-1582-4c3c-8366-b1f4d39a9911" attributeName="d" values="M1981 1041 L1981 1449;M1981 1041 L1981 1449;M1981 1041 L1981 1449;M1981 1041 L1981 1449;M1981 1041 L1981 1449;M1981 1041 L1981 1449;M1981 1041 L1981 1449" repeatCount="indefinite" dur="10s"/></path>
                           </g>
                        <animateTransform id="sca581347-8325-42ec-bbfb-42ef684b7c78" attributeName="transform" attributeType="XML" type="translate" values="-536 0;0 0;0 0;0 0;0 0;0 0;-536 0" repeatCount="indefinite" dur="10s"/></g>
                     </g>
                     <g data-id="x26759c5d-0df3-42ce-bacc-e27e56a41349" data-class="beam" class="beam">
                        <g data-id="bbox-x26759c5d-0df3-42ce-bacc-e27e56a41349" data-class="beam" class="beam bounding-box">
                           <rect x="2275" y="1292" height="170" width="762" fill="transparent"/>
                        </g>
                        <polygon points="2275,1462 3037,1462 3037,1394 2275,1394"><animate id="s5176e133-2e06-4f67-8392-a4cdd6f91e73" attributeName="points" values="2339,1462 3161,1462 3161,1394 2339,1394;2275,1462,3037,1462,3037,1394,2275,1394;2275,1462,3037,1462,3037,1394,2275,1394;2275,1462,3037,1462,3037,1394,2275,1394;2275,1462,3037,1462,3037,1394,2275,1394;2275,1462,3037,1462,3037,1394,2275,1394;2339,1462 3161,1462 3161,1394 2339,1394" repeatCount="indefinite" dur="10s"/></polygon>
                        <polygon points="2731,1360 3037,1360 3037,1292 2731,1292"><animate id="sa8416242-4421-4003-9556-d5614f78bd39" attributeName="points" values="2795,1360 3161,1360 3161,1292 2795,1292;2731,1360,3037,1360,3037,1292,2731,1292;2731,1360,3037,1360,3037,1292,2731,1292;2731,1360,3037,1360,3037,1292,2731,1292;2731,1360,3037,1360,3037,1292,2731,1292;2731,1360,3037,1360,3037,1292,2731,1292;2795,1360 3161,1360 3161,1292 2795,1292" repeatCount="indefinite" dur="10s"/></polygon>
                        <g data-id="x99fae313-bf65-41a9-abe1-c4b69880c370" data-class="note" class="note">
                           <g data-id="bbox-x99fae313-bf65-41a9-abe1-c4b69880c370" data-class="note" class="note bounding-box">
                              <rect x="2275" y="947" height="145" width="171" fill="transparent"/>
                           </g>
                           <g data-class="notehead" class="notehead">
                              <use href="#E0A4-124ayja" x="2275" y="1020" height="547px" width="547px"/>
                           </g>
                           <g data-id="sk044d7" data-class="stem" class="stem">
                              <g data-id="bbox-sk044d7" data-class="stem" class="stem bounding-box">
                                 <rect x="2274" y="1035" height="421" width="13" fill="transparent"/>
                              </g>
                              <path d="M2281 1041 L2281 1449" stroke="currentColor" stroke-width="13"><animate id="sf4f0604b-c261-4262-9c62-1ff2e2354745" attributeName="d" values="M2281 1041 L2281 1449;M2281 1041 L2281 1449;M2281 1041 L2281 1449;M2281 1041 L2281 1449;M2281 1041 L2281 1449;M2281 1041 L2281 1449;M2281 1041 L2281 1449" repeatCount="indefinite" dur="10s"/></path>
                           </g>
                        <animateTransform id="s457ac56c-ff1a-458e-bd79-7c9de4eabb24" attributeName="transform" attributeType="XML" type="translate" values="64 0;0 0;0 0;0 0;0 0;0 0;64 0" repeatCount="indefinite" dur="10s"/></g>
                        <g data-id="x28c74df3-80fb-46b4-a64d-bbb0c38e5df7" data-class="note" class="note">
                           <g data-id="bbox-x28c74df3-80fb-46b4-a64d-bbb0c38e5df7" data-class="note" class="note bounding-box">
                              <rect x="2725" y="947" height="145" width="171" fill="transparent"/>
                           </g>
                           <g data-class="notehead" class="notehead">
                              <use href="#E0A4-124ayja" x="2725" y="1020" height="547px" width="547px"/>
                           </g>
                           <g data-id="s1mwarcw" data-class="stem" class="stem">
                              <g data-id="bbox-s1mwarcw" data-class="stem" class="stem bounding-box">
                                 <rect x="2724" y="1035" height="421" width="13" fill="transparent"/>
                              </g>
                              <path d="M2731 1041 L2731 1449" stroke="currentColor" stroke-width="13"><animate id="s48cfc339-89c0-4517-b1e9-c6e13d07e2e2" attributeName="d" values="M2731 1041 L2731 1449;M2731 1041 L2731 1449;M2731 1041 L2731 1449;M2731 1041 L2731 1449;M2731 1041 L2731 1449;M2731 1041 L2731 1449;M2731 1041 L2731 1449" repeatCount="indefinite" dur="10s"/></path>
                           </g>
                        <animateTransform id="sd058eed4-a835-44c7-8d2e-179c96c19c7a" attributeName="transform" attributeType="XML" type="translate" values="64 0;0 0;0 0;0 0;0 0;0 0;64 0" repeatCount="indefinite" dur="10s"/></g>
                        <g data-id="xac4d6ab7-55ed-4f56-b529-fc520ae8f4a0" data-class="note" class="note">
                           <g data-id="bbox-xac4d6ab7-55ed-4f56-b529-fc520ae8f4a0" data-class="note" class="note bounding-box">
                              <rect x="3025" y="947" height="145" width="171" fill="transparent"/>
                           </g>
                           <g data-class="notehead" class="notehead">
                              <use href="#E0A4-124ayja" x="3025" y="1020" height="547px" width="547px"/>
                           </g>
                           <g data-id="sk8wvj6" data-class="stem" class="stem">
                              <g data-id="bbox-sk8wvj6" data-class="stem" class="stem bounding-box">
                                 <rect x="3024" y="1035" height="421" width="13" fill="transparent"/>
                              </g>
                              <path d="M3031 1041 L3031 1449" stroke="currentColor" stroke-width="13"><animate id="s84110495-584a-4f9f-91b4-6f7fd3dda33c" attributeName="d" values="M3031 1041 L3031 1449;M3031 1041 L3031 1449;M3031 1041 L3031 1449;M3031 1041 L3031 1449;M3031 1041 L3031 1449;M3031 1041 L3031 1449;M3031 1041 L3031 1449" repeatCount="indefinite" dur="10s"/></path>
                           </g>
                        <animateTransform id="s1c1df476-043c-433e-a60e-1f227d33e0b6" attributeName="transform" attributeType="XML" type="translate" values="124 0;0 0;0 0;0 0;0 0;0 0;124 0" repeatCount="indefinite" dur="10s"/></g>
                     </g>
                  </g>
               </g>
               <g data-id="xa1821338-e019-4137-92fb-f005689dfcc5" data-class="dir" class="dir">
                  <g data-id="bbox-xa1821338-e019-4137-92fb-f005689dfcc5" data-class="dir" class="dir bounding-box"/>
                  <text x="1088" y="311" font-size="0px">
                     <tspan data-id="t1az5ubd" data-class="text" class="text">
                        <g data-id="bbox-t1az5ubd" data-class="text" class="text bounding-box">
                           <rect x="1088" y="100" height="274" width="1043" fill="transparent"/>
                        </g>
                        <tspan font-size="307px">nur 16tel</tspan>
                     </tspan>
                  </text>
               </g>
               <g data-id="b1233l8k" data-class="barLine" class="barLine supplied" fill="#009900" stroke="#009900">
                  <g data-id="bbox-b1233l8k" data-class="barLine" class="barLine bounding-box">
                     <rect x="3311" y="395" height="571" width="27" fill="transparent"/>
                  </g>
                  <path d="M3325 408 L3325 952" stroke="currentColor" stroke-width="27"/>
               <animate id="s9fa244f8-435f-4c7d-999c-2d41636949e1" attributeName="opacity" values="0;0;1;1;1;0;0" dur="10s" repeatCount="indefinite"/></g>
            <animateTransform id="s65612752-a13f-45bb-a01e-9e96c2bf8a7e" attributeName="transform" attributeType="XML" type="translate" values="17381 0;17381 0;17381 0;0 0;17381 0;17381 0;17381 0" repeatCount="indefinite" dur="10s"/></g>
            <g data-id="s10y8f8s" data-class="systemMilestoneEnd" class="systemMilestoneEnd xe9e51863-c98d-46f2-b192-5a8f5d95b912"/>
         </g>
         <g data-id="p1mimv69" data-class="pageMilestoneEnd" class="pageMilestoneEnd s1ikmwkj">
            <g data-id="bbox-p1mimv69" data-class="pageMilestoneEnd" class="pageMilestoneEnd bounding-box"/>
         </g>
         <g data-id="ppzmt1c" data-class="pageMilestoneEnd" class="pageMilestoneEnd x757217f4-7135-499a-8aac-d27ccfba4eb5">
            <g data-id="bbox-ppzmt1c" data-class="pageMilestoneEnd" class="pageMilestoneEnd bounding-box"/>
         </g>
      </g>
   </svg>
</svg>