<svg width="1098px" height="300px" version="1.1" xmlns="http://www.w3.org/2000/svg" xmlns:xlink="http://www.w3.org/1999/xlink" xmlns:mei="http://www.music-encoding.org/ns/mei" overflow="visible">
   <desc>Engraved by Verovio 4.4.0-dev-73f28d6</desc>
   <defs>
      <symbol id="E082-1j1k7p4" viewBox="0 0 1000 1000" overflow="inherit">
         <path transform="scale(1,-1)" d="M124 -185c-18 0 -55 -14 -65 -65h-36l-3 30c0 25 6 45 18 63c11 19 22 30 39 43l121 82l37 29c15 11 27 29 38 54c12 24 18 47 18 70c0 40 -19 88 -94 88c-25 0 -32 0 -50 -8c-14 -5 -23 -12 -26 -22c3 -9 7 -15 10 -18l24 -17c12 -7 17 -11 27 -21c5 -7 7 -16 7 -27 c0 -12 0 -57 -79 -74c-30 0 -76 26 -76 94c0 66 81 135 197 135c72 0 181 -32 181 -150c0 -53 -32 -95 -113 -133l-91 -41c-26 -11 -45 -23 -57 -37l49 7c84 0 115 -41 148 -41c20 0 33 20 39 61h35c0 -152 -68 -168 -114 -168c-17 0 -65 0 -79 7h10l-28 17 c-49 37 -69 40 -87 42z"/>
      </symbol>
      <symbol id="E084-1j1k7p4" viewBox="0 0 1000 1000" overflow="inherit">
         <path transform="scale(1,-1)" d="M20 -78c84 97 114 180 134 329h170c-13 -32 -82 -132 -99 -151l-84 -97c-33 -36 -59 -63 -80 -81h162v102l127 123v-225h57v-39h-57v-34c0 -43 19 -65 57 -65v-34h-244v36c48 0 60 26 60 70v27h-203v39z"/>
      </symbol>
      <symbol id="E0A4-1j1k7p4" viewBox="0 0 1000 1000" overflow="inherit">
         <path transform="scale(1,-1)" d="M0 -39c0 68 73 172 200 172c66 0 114 -37 114 -95c0 -84 -106 -171 -218 -171c-64 0 -96 30 -96 94z"/>
      </symbol>
      <symbol id="E050-1j1k7p4" viewBox="0 0 1000 1000" overflow="inherit">
         <path transform="scale(1,-1)" d="M441 -245c-23 -4 -48 -6 -76 -6c-59 0 -102 7 -130 20c-88 42 -150 93 -187 154c-26 44 -43 103 -48 176c0 6 -1 13 -1 19c0 54 15 111 45 170c29 57 65 106 110 148s96 85 153 127c-3 16 -8 46 -13 92c-4 43 -5 73 -5 89c0 117 16 172 69 257c34 54 64 82 89 82 c21 0 43 -30 69 -92s39 -115 41 -159v-15c0 -109 -21 -162 -67 -241c-13 -20 -63 -90 -98 -118c-13 -9 -25 -19 -37 -29l31 -181c8 1 18 2 28 2c58 0 102 -12 133 -35c59 -43 92 -104 98 -184c1 -7 1 -15 1 -22c0 -123 -87 -209 -181 -248c8 -57 17 -110 25 -162 c5 -31 6 -58 6 -80c0 -30 -5 -53 -14 -70c-35 -64 -88 -99 -158 -103c-5 0 -11 -1 -16 -1c-37 0 -72 10 -108 27c-50 24 -77 59 -80 105v11c0 29 7 55 20 76c18 28 45 42 79 44h6c49 0 93 -42 97 -87v-9c0 -51 -34 -86 -105 -106c17 -24 51 -36 102 -36c62 0 116 43 140 85 c9 16 13 41 13 74c0 20 -1 42 -5 67c-8 53 -18 106 -26 159zM461 939c-95 0 -135 -175 -135 -286c0 -24 2 -48 5 -71c50 39 92 82 127 128c40 53 60 100 60 140v8c-4 53 -22 81 -55 81h-2zM406 119l54 -326c73 25 110 78 110 161c0 7 0 15 -1 23c-7 95 -57 142 -151 142h-12 zM382 117c-72 -2 -128 -47 -128 -120v-7c2 -46 43 -99 75 -115c-3 -2 -7 -5 -10 -10c-70 33 -116 88 -123 172v11c0 68 44 126 88 159c23 17 49 29 78 36l-29 170c-21 -13 -52 -37 -92 -73c-50 -44 -86 -84 -109 -119c-45 -69 -67 -130 -67 -182v-13c5 -68 35 -127 93 -176 s125 -73 203 -73c25 0 50 3 75 9c-19 111 -36 221 -54 331z"/>
      </symbol>
      <symbol id="E260-1j1k7p4" viewBox="0 0 1000 1000" overflow="inherit">
         <path transform="scale(1,-1)" d="M20 110c32 16 54 27 93 27c26 0 35 -3 54 -13c13 -7 24 -20 27 -38l4 -25c0 -28 -16 -57 -45 -89c-23 -25 -39 -44 -65 -68l-88 -79v644h20v-359zM90 106c-32 0 -48 -10 -70 -29v-194c31 31 54 59 71 84c21 32 32 59 32 84c0 9 1 16 1 20c0 14 -3 21 -11 30l-8 3z"/>
      </symbol>
   </defs>
   <style type="text/css">g.page-margin{font-family:Times,serif;} g.ending, g.fing, g.reh, g.tempo{font-weight:bold;} g.dir, g.dynam, g.mNum{font-style:italic;} g.label{font-weight:normal;}</style>
   <svg class="definition-scale" color="black" viewBox="0 0 27450 7490">
      <g class="page-margin" transform="translate(1000, 3000)">
         <g data-id="x757217f4-7135-499a-8aac-d27ccfba4eb5" data-class="mdiv" class="mdiv pageMilestone">
            <g data-id="bbox-x757217f4-7135-499a-8aac-d27ccfba4eb5" data-class="mdiv" class="mdiv bounding-box"/>
         </g>
         <g data-id="s1c8yrp9" data-class="score" class="score pageMilestone">
            <g data-id="bbox-s1c8yrp9" data-class="score" class="score bounding-box"/>
         </g>
         <g data-id="s1yapp08" data-class="system" class="system">
            <g data-id="bbox-s1yapp08" data-class="system" class="system bounding-box"/>
            <g data-id="xe9e51863-c98d-46f2-b192-5a8f5d95b912" data-class="section" class="section systemMilestone"/>
            <g data-id="p141f95r" data-class="pb" class="pb"/>
            <g data-id="s8npmkl" data-class="sb" class="sb"/>
            <g data-id="xda0d2473-6b89-44d0-82ee-a68b7321d0cb" data-class="measure" class="measure">
               <g data-id="bbox-xda0d2473-6b89-44d0-82ee-a68b7321d0cb" data-class="measure" class="measure bounding-box"/>
               <g data-id="x2597e762-8783-4a9f-9eac-4aaf61029422" data-class="staff" class="staff">
                  <g data-id="bbox-x2597e762-8783-4a9f-9eac-4aaf61029422" data-class="staff" class="staff bounding-box">
                     <rect x="-5" y="403" height="554" width="3348" fill="transparent"/>
                  </g>
                  <path d="M-802 408 L4140 408" stroke="currentColor" stroke-width="10"><animate id="scec7402f-66ca-49ca-8717-12abe9b67427" attributeName="d" values="M-802 408 L4140 408;M0 408 L3338 408;M0 408 L3338 408;M0 408 L3338 408;M0 408 L3338 408;M0 408 L3338 408;M-802 408 L4140 408" repeatCount="indefinite" dur="10s"/></path>
                  <path d="M-802 544 L4140 544" stroke="currentColor" stroke-width="10"><animate id="sa954d010-2f15-4f47-84a1-288000a4d572" attributeName="d" values="M-802 544 L4140 544;M0 544 L3338 544;M0 544 L3338 544;M0 544 L3338 544;M0 544 L3338 544;M0 544 L3338 544;M-802 544 L4140 544" repeatCount="indefinite" dur="10s"/></path>
                  <path d="M-802 680 L4140 680" stroke="currentColor" stroke-width="10"><animate id="s0d92646f-70ef-4284-aaca-630e116fe88c" attributeName="d" values="M-802 680 L4140 680;M0 680 L3338 680;M0 680 L3338 680;M0 680 L3338 680;M0 680 L3338 680;M0 680 L3338 680;M-802 680 L4140 680" repeatCount="indefinite" dur="10s"/></path>
                  <path d="M-802 816 L4140 816" stroke="currentColor" stroke-width="10"><animate id="s15f3ccce-51d9-46a2-a2e4-be641e2fc74b" attributeName="d" values="M-802 816 L4140 816;M0 816 L3338 816;M0 816 L3338 816;M0 816 L3338 816;M0 816 L3338 816;M0 816 L3338 816;M-802 816 L4140 816" repeatCount="indefinite" dur="10s"/></path>
                  <path d="M-802 952 L4140 952" stroke="currentColor" stroke-width="10"><animate id="s0ccbd68b-1d91-4eb6-adab-609d79b914d3" attributeName="d" values="M-802 952 L4140 952;M0 952 L3338 952;M0 952 L3338 952;M0 952 L3338 952;M0 952 L3338 952;M0 952 L3338 952;M-802 952 L4140 952" repeatCount="indefinite" dur="10s"/></path>
                  <g data-id="cs5vtjn" data-class="clef" class="clef supplied" fill="#009900" stroke="#009900">
                     <g data-id="bbox-cs5vtjn" data-class="clef" class="clef bounding-box">
                        <rect x="68" y="224" height="950" width="353" fill="transparent"/>
                     </g>
                     <use href="#E050-1j1k7p4" x="68" y="816" height="547px" width="547px"/>
                  <animate id="s18c57285-2a5d-46e6-a4b7-3fe0d1df19c5" attributeName="opacity" values="0;0;1;1;1;0;0" dur="10s" repeatCount="indefinite"/></g>
                  <g data-id="kf149wp" data-class="keySig" class="keySig supplied" fill="#009900" stroke="#009900">
                     <g data-id="bbox-kf149wp" data-class="keySig" class="keySig bounding-box">
                        <rect x="557" y="423" height="352" width="108" fill="transparent"/>
                     </g>
                     <g data-id="kgnufbk" data-class="keyAccid" class="keyAccid">
                        <use href="#E260-1j1k7p4" x="557" y="680" height="547px" width="547px"/>
                     </g>
                  <animate id="s5ccecdc9-e176-46fb-8af7-da1762d3185b" attributeName="opacity" values="0;0;1;1;1;0;0" dur="10s" repeatCount="indefinite"/></g>
                  <g data-id="m12wdxp0" data-class="meterSig" class="meterSig supplied" fill="#009900" stroke="#009900">
                     <g data-id="bbox-m12wdxp0" data-class="meterSig" class="meterSig bounding-box">
                        <rect x="801" y="407" height="545" width="219" fill="transparent"/>
                     </g>
                     <use href="#E082-1j1k7p4" x="791" y="544" height="547px" width="547px"/>
                     <use href="#E084-1j1k7p4" x="795" y="816" height="547px" width="547px"/>
                  <animate id="s17429168-5d26-4cf2-b19c-34b0237f50f2" attributeName="opacity" values="0;0;1;1;1;0;0" dur="10s" repeatCount="indefinite"/></g>
                  <g data-id="x59aa7b81-1e52-491c-a2be-7b92edbc456a" data-class="layer" class="layer">
                     <g data-id="bbox-x59aa7b81-1e52-491c-a2be-7b92edbc456a" data-class="layer" class="layer bounding-box"/>
                     <g data-id="x3f9040d1-a7fe-46f2-88a1-553dcc8e3a5b" data-class="beam" class="beam">
                        <g data-id="bbox-x3f9040d1-a7fe-46f2-88a1-553dcc8e3a5b" data-class="beam" class="beam bounding-box">
                           <rect x="1225" y="1292" height="170" width="762" fill="transparent"/>
                        </g>
                        <polygon points="1225,1462 1987,1462 1987,1394 1225,1394"><animate id="s6140ee9e-18cc-4ed4-b8bf-70e34452c6cc" attributeName="points" values="449,1462 1451,1462 1451,1394 449,1394;1225,1462,1987,1462,1987,1394,1225,1394;1225,1462,1987,1462,1987,1394,1225,1394;1225,1462,1987,1462,1987,1394,1225,1394;1225,1462,1987,1462,1987,1394,1225,1394;1225,1462,1987,1462,1987,1394,1225,1394;449,1462 1451,1462 1451,1394 449,1394" repeatCount="indefinite" dur="10s"/></polygon>
                        <polygon points="1681,1360 1987,1360 1987,1292 1681,1292"><animate id="s0f4f5932-5cdd-4214-a2c5-aa4d3524eac0" attributeName="points" values="995,1360 1451,1360 1451,1292 995,1292;1681,1360,1987,1360,1987,1292,1681,1292;1681,1360,1987,1360,1987,1292,1681,1292;1681,1360,1987,1360,1987,1292,1681,1292;1681,1360,1987,1360,1987,1292,1681,1292;1681,1360,1987,1360,1987,1292,1681,1292;995,1360 1451,1360 1451,1292 995,1292" repeatCount="indefinite" dur="10s"/></polygon>
                        <g data-id="x8ac2f938-33e4-43c4-8826-d3da4c157c72" data-class="note" class="note">
                           <g data-id="bbox-x8ac2f938-33e4-43c4-8826-d3da4c157c72" data-class="note" class="note bounding-box">
                              <rect x="1225" y="947" height="145" width="171" fill="transparent"/>
                           </g>
                           <g data-class="notehead" class="notehead">
                              <use href="#E0A4-1j1k7p4" x="1225" y="1020" height="547px" width="547px"/>
                           </g>
                           <g data-id="s1367oum" data-class="stem" class="stem">
                              <g data-id="bbox-s1367oum" data-class="stem" class="stem bounding-box">
                                 <rect x="1224" y="1035" height="421" width="13" fill="transparent"/>
                              </g>
                              <path d="M1231 1041 L1231 1449" stroke="currentColor" stroke-width="13"><animate id="s931959bd-ed19-42f6-ba6e-525608d0fb54" attributeName="d" values="M1231 1041 L1231 1449;M1231 1041 L1231 1449;M1231 1041 L1231 1449;M1231 1041 L1231 1449;M1231 1041 L1231 1449;M1231 1041 L1231 1449;M1231 1041 L1231 1449" repeatCount="indefinite" dur="10s"/></path>
                           </g>
                        <animateTransform id="s25960597-7740-4cdb-9b82-a5b59ee12f75" attributeName="transform" attributeType="XML" type="translate" values="-776 0;0 0;0 0;0 0;0 0;0 0;-776 0" repeatCount="indefinite" dur="10s"/></g>
                        <g data-id="x251b1ec3-b531-4c1d-b03d-7f9082568f75" data-class="note" class="note">
                           <g data-id="bbox-x251b1ec3-b531-4c1d-b03d-7f9082568f75" data-class="note" class="note bounding-box">
                              <rect x="1675" y="947" height="145" width="171" fill="transparent"/>
                           </g>
                           <g data-class="notehead" class="notehead">
                              <use href="#E0A4-1j1k7p4" x="1675" y="1020" height="547px" width="547px"/>
                           </g>
                           <g data-id="s1jcpd0m" data-class="stem" class="stem">
                              <g data-id="bbox-s1jcpd0m" data-class="stem" class="stem bounding-box">
                                 <rect x="1674" y="1035" height="421" width="13" fill="transparent"/>
                              </g>
                              <path d="M1681 1041 L1681 1449" stroke="currentColor" stroke-width="13"><animate id="safe44c6f-71aa-45a1-a613-c0681a0d0e74" attributeName="d" values="M1681 1041 L1681 1449;M1681 1041 L1681 1449;M1681 1041 L1681 1449;M1681 1041 L1681 1449;M1681 1041 L1681 1449;M1681 1041 L1681 1449;M1681 1041 L1681 1449" repeatCount="indefinite" dur="10s"/></path>
                           </g>
                        <animateTransform id="s3ad76bee-3244-4da4-8d0e-83cc8f6088b0" attributeName="transform" attributeType="XML" type="translate" values="-686 0;0 0;0 0;0 0;0 0;0 0;-686 0" repeatCount="indefinite" dur="10s"/></g>
                        <g data-id="x65ddf5a7-30a7-4847-8cd2-4e78e9a38d24" data-class="note" class="note">
                           <g data-id="bbox-x65ddf5a7-30a7-4847-8cd2-4e78e9a38d24" data-class="note" class="note bounding-box">
                              <rect x="1975" y="947" height="145" width="171" fill="transparent"/>
                           </g>
                           <g data-class="notehead" class="notehead">
                              <use href="#E0A4-1j1k7p4" x="1975" y="1020" height="547px" width="547px"/>
                           </g>
                           <g data-id="s1e079cm" data-class="stem" class="stem">
                              <g data-id="bbox-s1e079cm" data-class="stem" class="stem bounding-box">
                                 <rect x="1974" y="1035" height="421" width="13" fill="transparent"/>
                              </g>
                              <path d="M1981 1041 L1981 1449" stroke="currentColor" stroke-width="13"><animate id="sf33a577b-7d64-4280-a2cb-1c501254e8b6" attributeName="d" values="M1981 1041 L1981 1449;M1981 1041 L1981 1449;M1981 1041 L1981 1449;M1981 1041 L1981 1449;M1981 1041 L1981 1449;M1981 1041 L1981 1449;M1981 1041 L1981 1449" repeatCount="indefinite" dur="10s"/></path>
                           </g>
                        <animateTransform id="s83b57faf-c80b-4586-9e72-139e393593a3" attributeName="transform" attributeType="XML" type="translate" values="-536 0;0 0;0 0;0 0;0 0;0 0;-536 0" repeatCount="indefinite" dur="10s"/></g>
                     </g>
                     <g data-id="x26759c5d-0df3-42ce-bacc-e27e56a41349" data-class="beam" class="beam">
                        <g data-id="bbox-x26759c5d-0df3-42ce-bacc-e27e56a41349" data-class="beam" class="beam bounding-box">
                           <rect x="2275" y="1292" height="170" width="762" fill="transparent"/>
                        </g>
                        <polygon points="2275,1462 3037,1462 3037,1394 2275,1394"><animate id="s5f4a7759-23e3-49d8-8569-6eb5b69e416f" attributeName="points" values="2339,1462 3161,1462 3161,1394 2339,1394;2275,1462,3037,1462,3037,1394,2275,1394;2275,1462,3037,1462,3037,1394,2275,1394;2275,1462,3037,1462,3037,1394,2275,1394;2275,1462,3037,1462,3037,1394,2275,1394;2275,1462,3037,1462,3037,1394,2275,1394;2339,1462 3161,1462 3161,1394 2339,1394" repeatCount="indefinite" dur="10s"/></polygon>
                        <polygon points="2731,1360 3037,1360 3037,1292 2731,1292"><animate id="se877dbba-929b-455d-9db9-cfbd47195610" attributeName="points" values="2795,1360 3161,1360 3161,1292 2795,1292;2731,1360,3037,1360,3037,1292,2731,1292;2731,1360,3037,1360,3037,1292,2731,1292;2731,1360,3037,1360,3037,1292,2731,1292;2731,1360,3037,1360,3037,1292,2731,1292;2731,1360,3037,1360,3037,1292,2731,1292;2795,1360 3161,1360 3161,1292 2795,1292" repeatCount="indefinite" dur="10s"/></polygon>
                        <g data-id="x99fae313-bf65-41a9-abe1-c4b69880c370" data-class="note" class="note">
                           <g data-id="bbox-x99fae313-bf65-41a9-abe1-c4b69880c370" data-class="note" class="note bounding-box">
                              <rect x="2275" y="947" height="145" width="171" fill="transparent"/>
                           </g>
                           <g data-class="notehead" class="notehead">
                              <use href="#E0A4-1j1k7p4" x="2275" y="1020" height="547px" width="547px"/>
                           </g>
                           <g data-id="sfinsx1" data-class="stem" class="stem">
                              <g data-id="bbox-sfinsx1" data-class="stem" class="stem bounding-box">
                                 <rect x="2274" y="1035" height="421" width="13" fill="transparent"/>
                              </g>
                              <path d="M2281 1041 L2281 1449" stroke="currentColor" stroke-width="13"><animate id="s2ab53683-f2ff-424e-8a8d-393a2c5e32f7" attributeName="d" values="M2281 1041 L2281 1449;M2281 1041 L2281 1449;M2281 1041 L2281 1449;M2281 1041 L2281 1449;M2281 1041 L2281 1449;M2281 1041 L2281 1449;M2281 1041 L2281 1449" repeatCount="indefinite" dur="10s"/></path>
                           </g>
                        <animateTransform id="s11889082-8c2f-4900-bb6a-9d7342f721b3" attributeName="transform" attributeType="XML" type="translate" values="64 0;0 0;0 0;0 0;0 0;0 0;64 0" repeatCount="indefinite" dur="10s"/></g>
                        <g data-id="x28c74df3-80fb-46b4-a64d-bbb0c38e5df7" data-class="note" class="note">
                           <g data-id="bbox-x28c74df3-80fb-46b4-a64d-bbb0c38e5df7" data-class="note" class="note bounding-box">
                              <rect x="2725" y="947" height="145" width="171" fill="transparent"/>
                           </g>
                           <g data-class="notehead" class="notehead">
                              <use href="#E0A4-1j1k7p4" x="2725" y="1020" height="547px" width="547px"/>
                           </g>
                           <g data-id="s1xxypve" data-class="stem" class="stem">
                              <g data-id="bbox-s1xxypve" data-class="stem" class="stem bounding-box">
                                 <rect x="2724" y="1035" height="421" width="13" fill="transparent"/>
                              </g>
                              <path d="M2731 1041 L2731 1449" stroke="currentColor" stroke-width="13"><animate id="sc5e144d0-8532-4913-b11c-8faa1030abf8" attributeName="d" values="M2731 1041 L2731 1449;M2731 1041 L2731 1449;M2731 1041 L2731 1449;M2731 1041 L2731 1449;M2731 1041 L2731 1449;M2731 1041 L2731 1449;M2731 1041 L2731 1449" repeatCount="indefinite" dur="10s"/></path>
                           </g>
                        <animateTransform id="sce7d4566-4554-4909-8c48-436650133c9e" attributeName="transform" attributeType="XML" type="translate" values="64 0;0 0;0 0;0 0;0 0;0 0;64 0" repeatCount="indefinite" dur="10s"/></g>
                        <g data-id="xac4d6ab7-55ed-4f56-b529-fc520ae8f4a0" data-class="note" class="note">
                           <g data-id="bbox-xac4d6ab7-55ed-4f56-b529-fc520ae8f4a0" data-class="note" class="note bounding-box">
                              <rect x="3025" y="947" height="145" width="171" fill="transparent"/>
                           </g>
                           <g data-class="notehead" class="notehead">
                              <use href="#E0A4-1j1k7p4" x="3025" y="1020" height="547px" width="547px"/>
                           </g>
                           <g data-id="s6n2d94" data-class="stem" class="stem">
                              <g data-id="bbox-s6n2d94" data-class="stem" class="stem bounding-box">
                                 <rect x="3024" y="1035" height="421" width="13" fill="transparent"/>
                              </g>
                              <path d="M3031 1041 L3031 1449" stroke="currentColor" stroke-width="13"><animate id="s268e8208-2a40-4475-a3ae-44963c78b5da" attributeName="d" values="M3031 1041 L3031 1449;M3031 1041 L3031 1449;M3031 1041 L3031 1449;M3031 1041 L3031 1449;M3031 1041 L3031 1449;M3031 1041 L3031 1449;M3031 1041 L3031 1449" repeatCount="indefinite" dur="10s"/></path>
                           </g>
                        <animateTransform id="saebb090b-ef80-4c0a-9cd3-1b5bf14aa22e" attributeName="transform" attributeType="XML" type="translate" values="124 0;0 0;0 0;0 0;0 0;0 0;124 0" repeatCount="indefinite" dur="10s"/></g>
                     </g>
                  </g>
               </g>
               <g data-id="xa1821338-e019-4137-92fb-f005689dfcc5" data-class="dir" class="dir">
                  <g data-id="bbox-xa1821338-e019-4137-92fb-f005689dfcc5" data-class="dir" class="dir bounding-box"/>
                  <text x="1088" y="311" font-size="0px">
                     <tspan data-id="tvuheo9" data-class="text" class="text">
                        <g data-id="bbox-tvuheo9" data-class="text" class="text bounding-box">
                           <rect x="1088" y="100" height="274" width="1043" fill="transparent"/>
                        </g>
                        <tspan font-size="307px">nur 16tel</tspan>
                     </tspan>
                  </text>
               </g>
               <g data-id="b1l8drx3" data-class="barLine" class="barLine supplied" fill="#009900" stroke="#009900">
                  <g data-id="bbox-b1l8drx3" data-class="barLine" class="barLine bounding-box">
                     <rect x="3311" y="395" height="571" width="27" fill="transparent"/>
                  </g>
                  <path d="M3325 408 L3325 952" stroke="currentColor" stroke-width="27"/>
               <animate id="sc9108c2c-e2c2-4d66-a56e-e3bd0fe453d6" attributeName="opacity" values="0;0;1;1;1;0;0" dur="10s" repeatCount="indefinite"/></g>
            <animateTransform id="s0fe3a46a-e765-416e-a7d7-9991bb291acf" attributeName="transform" attributeType="XML" type="translate" values="17381 0;17381 0;17381 0;0 0;17381 0;17381 0;17381 0" repeatCount="indefinite" dur="10s"/></g>
            <g data-id="s1dp3lql" data-class="systemMilestoneEnd" class="systemMilestoneEnd xe9e51863-c98d-46f2-b192-5a8f5d95b912"/>
         </g>
         <g data-id="p1yj5e8d" data-class="pageMilestoneEnd" class="pageMilestoneEnd s1c8yrp9">
            <g data-id="bbox-p1yj5e8d" data-class="pageMilestoneEnd" class="pageMilestoneEnd bounding-box"/>
         </g>
         <g data-id="p13o635j" data-class="pageMilestoneEnd" class="pageMilestoneEnd x757217f4-7135-499a-8aac-d27ccfba4eb5">
            <g data-id="bbox-p13o635j" data-class="pageMilestoneEnd" class="pageMilestoneEnd bounding-box"/>
         </g>
      </g>
   </svg>
</svg>