<svg width="1220px" height="928px" version="1.1" xmlns="http://www.w3.org/2000/svg" xmlns:xlink="http://www.w3.org/1999/xlink" xmlns:mei="http://www.music-encoding.org/ns/mei" overflow="visible">
   <desc>Engraved by Verovio 4.3.1-3b8cc17</desc>
   <defs>
      <symbol id="E082-1htat5n" viewBox="0 0 1000 1000" overflow="inherit">
         <path transform="scale(1,-1)" d="M124 -185c-18 0 -55 -14 -65 -65h-36l-3 30c0 25 6 45 18 63c11 19 22 30 39 43l121 82l37 29c15 11 27 29 38 54c12 24 18 47 18 70c0 40 -19 88 -94 88c-25 0 -32 0 -50 -8c-14 -5 -23 -12 -26 -22c3 -9 7 -15 10 -18l24 -17c12 -7 17 -11 27 -21c5 -7 7 -16 7 -27 c0 -12 0 -57 -79 -74c-30 0 -76 26 -76 94c0 66 81 135 197 135c72 0 181 -32 181 -150c0 -53 -32 -95 -113 -133l-91 -41c-26 -11 -45 -23 -57 -37l49 7c84 0 115 -41 148 -41c20 0 33 20 39 61h35c0 -152 -68 -168 -114 -168c-17 0 -65 0 -79 7h10l-28 17 c-49 37 -69 40 -87 42z"/>
      </symbol>
      <symbol id="E084-1htat5n" viewBox="0 0 1000 1000" overflow="inherit">
         <path transform="scale(1,-1)" d="M20 -78c84 97 114 180 134 329h170c-13 -32 -82 -132 -99 -151l-84 -97c-33 -36 -59 -63 -80 -81h162v102l127 123v-225h57v-39h-57v-34c0 -43 19 -65 57 -65v-34h-244v36c48 0 60 26 60 70v27h-203v39z"/>
      </symbol>
      <symbol id="E0A4-1htat5n" viewBox="0 0 1000 1000" overflow="inherit">
         <path transform="scale(1,-1)" d="M0 -39c0 68 73 172 200 172c66 0 114 -37 114 -95c0 -84 -106 -171 -218 -171c-64 0 -96 30 -96 94z"/>
      </symbol>
      <symbol id="E050-1htat5n" viewBox="0 0 1000 1000" overflow="inherit">
         <path transform="scale(1,-1)" d="M441 -245c-23 -4 -48 -6 -76 -6c-59 0 -102 7 -130 20c-88 42 -150 93 -187 154c-26 44 -43 103 -48 176c0 6 -1 13 -1 19c0 54 15 111 45 170c29 57 65 106 110 148s96 85 153 127c-3 16 -8 46 -13 92c-4 43 -5 73 -5 89c0 117 16 172 69 257c34 54 64 82 89 82 c21 0 43 -30 69 -92s39 -115 41 -159v-15c0 -109 -21 -162 -67 -241c-13 -20 -63 -90 -98 -118c-13 -9 -25 -19 -37 -29l31 -181c8 1 18 2 28 2c58 0 102 -12 133 -35c59 -43 92 -104 98 -184c1 -7 1 -15 1 -22c0 -123 -87 -209 -181 -248c8 -57 17 -110 25 -162 c5 -31 6 -58 6 -80c0 -30 -5 -53 -14 -70c-35 -64 -88 -99 -158 -103c-5 0 -11 -1 -16 -1c-37 0 -72 10 -108 27c-50 24 -77 59 -80 105v11c0 29 7 55 20 76c18 28 45 42 79 44h6c49 0 93 -42 97 -87v-9c0 -51 -34 -86 -105 -106c17 -24 51 -36 102 -36c62 0 116 43 140 85 c9 16 13 41 13 74c0 20 -1 42 -5 67c-8 53 -18 106 -26 159zM461 939c-95 0 -135 -175 -135 -286c0 -24 2 -48 5 -71c50 39 92 82 127 128c40 53 60 100 60 140v8c-4 53 -22 81 -55 81h-2zM406 119l54 -326c73 25 110 78 110 161c0 7 0 15 -1 23c-7 95 -57 142 -151 142h-12 zM382 117c-72 -2 -128 -47 -128 -120v-7c2 -46 43 -99 75 -115c-3 -2 -7 -5 -10 -10c-70 33 -116 88 -123 172v11c0 68 44 126 88 159c23 17 49 29 78 36l-29 170c-21 -13 -52 -37 -92 -73c-50 -44 -86 -84 -109 -119c-45 -69 -67 -130 -67 -182v-13c5 -68 35 -127 93 -176 s125 -73 203 -73c25 0 50 3 75 9c-19 111 -36 221 -54 331z"/>
      </symbol>
      <symbol id="E262-1htat5n" viewBox="0 0 1000 1000" overflow="inherit">
         <path transform="scale(1,-1)" d="M136 186v169h17v-164l44 14v-91l-44 -14v-165l44 12v-91l-44 -13v-155h-17v150l-76 -22v-155h-17v149l-43 -13v90l43 14v167l-43 -14v92l43 13v169h17v-163zM60 73v-167l76 22v168z"/>
      </symbol>
      <symbol id="E260-1htat5n" viewBox="0 0 1000 1000" overflow="inherit">
         <path transform="scale(1,-1)" d="M20 110c32 16 54 27 93 27c26 0 35 -3 54 -13c13 -7 24 -20 27 -38l4 -25c0 -28 -16 -57 -45 -89c-23 -25 -39 -44 -65 -68l-88 -79v644h20v-359zM90 106c-32 0 -48 -10 -70 -29v-194c31 31 54 59 71 84c21 32 32 59 32 84c0 9 1 16 1 20c0 14 -3 21 -11 30l-8 3z"/>
      </symbol>
   </defs>
   <style type="text/css">g.page-margin{font-family:Times,serif;} g.ending, g.fing, g.reh, g.tempo{font-weight:bold;} g.dir, g.dynam, g.mNum{font-style:italic;} g.label{font-weight:normal;}</style>
   <svg class="definition-scale" color="black" viewBox="0 0 30500 23200">
      <g class="page-margin" transform="translate(0, 0)">
         <g data-id="xac999ca0-608b-4572-8504-e901be171ca4" data-class="mdiv" class="mdiv pageMilestone">
            <g data-id="bbox-xac999ca0-608b-4572-8504-e901be171ca4" data-class="mdiv" class="mdiv bounding-box"/>
         </g>
         <g data-id="srxfrjw" data-class="score" class="score pageMilestone">
            <g data-id="bbox-srxfrjw" data-class="score" class="score bounding-box"/>
         </g>
         <g data-id="s16nbm8x" data-class="system" class="system">
            <g data-id="bbox-s16nbm8x" data-class="system" class="system bounding-box"/>
            <g data-id="x5c2bac79-50bd-4531-9af8-1ba13b2fcda5" data-class="section" class="section systemMilestone"/>
            <g data-id="p2am0ta" data-class="pb" class="pb"/>
            <g data-id="su8f764" data-class="sb" class="sb"/>
            <g data-id="x8b162de4-a1ea-45e5-8743-6b78df9e1e34" data-class="measure" class="measure">
               <g data-id="bbox-x8b162de4-a1ea-45e5-8743-6b78df9e1e34" data-class="measure" class="measure bounding-box"/>
               <g data-id="x9b030677-5504-4148-8a30-f5be65130498" data-class="staff" class="staff">
                  <g data-id="bbox-x9b030677-5504-4148-8a30-f5be65130498" data-class="staff" class="staff bounding-box">
                     <rect x="-5" y="191" height="853" width="3381" fill="transparent"/>
                  </g>
                  <path d="M0 479 L3371 479" stroke="currentColor" stroke-width="10"/>
                  <path d="M0 619 L3371 619" stroke="currentColor" stroke-width="10"/>
                  <path d="M0 759 L3371 759" stroke="currentColor" stroke-width="10"/>
                  <path d="M0 899 L3371 899" stroke="currentColor" stroke-width="10"/>
                  <path d="M0 1039 L3371 1039" stroke="currentColor" stroke-width="10"/>
                  <g data-id="c13tntmt" data-class="clef" class="clef">
                     <g data-id="bbox-c13tntmt" data-class="clef" class="clef bounding-box">
                        <rect x="70" y="291" height="975" width="362" fill="transparent"/>
                     </g>
                     <use href="#E050-1htat5n" x="70" y="899" height="561px" width="561px"/>
                  </g>
                  <g data-id="k1kaib2y" data-class="keySig" class="keySig">
                     <g data-id="bbox-k1kaib2y" data-class="keySig" class="keySig bounding-box">
                        <rect x="572" y="496" height="361" width="111" fill="transparent"/>
                     </g>
                     <g data-id="k1fkajy" data-class="keyAccid" class="keyAccid">
                        <use href="#E260-1htat5n" x="572" y="759" height="561px" width="561px"/>
                     </g>
                  </g>
                  <g data-id="mrmgr0h" data-class="meterSig" class="meterSig">
                     <g data-id="bbox-mrmgr0h" data-class="meterSig" class="meterSig bounding-box">
                        <rect x="823" y="478" height="561" width="225" fill="transparent"/>
                     </g>
                     <use href="#E082-1htat5n" x="812" y="619" height="561px" width="561px"/>
                     <use href="#E084-1htat5n" x="816" y="899" height="561px" width="561px"/>
                  </g>
                  <g data-class="ledgerLines" class="ledgerLines above">
                     <path d="M1221 339 L1471 339" stroke="currentColor" stroke-width="17"/>
                     <path d="M1671 339 L1921 339" stroke="currentColor" stroke-width="17"/>
                     <path d="M1971 339 L2221 339" stroke="currentColor" stroke-width="17"/>
                     <path d="M2271 339 L2521 339" stroke="currentColor" stroke-width="17"/>
                     <path d="M2721 339 L2971 339" stroke="currentColor" stroke-width="17"/>
                     <path d="M3021 339 L3271 339" stroke="currentColor" stroke-width="17"/>
                     <path d="M1221 199 L1471 199" stroke="currentColor" stroke-width="17"/>
                     <path d="M1671 199 L1921 199" stroke="currentColor" stroke-width="17"/>
                     <path d="M1971 199 L2221 199" stroke="currentColor" stroke-width="17"/>
                     <path d="M2271 199 L2521 199" stroke="currentColor" stroke-width="17"/>
                     <path d="M2721 199 L2971 199" stroke="currentColor" stroke-width="17"/>
                     <path d="M3021 199 L3271 199" stroke="currentColor" stroke-width="17"/>
                  </g>
                  <g data-id="xb51ea6e5-f914-448e-8f94-15e89b17f7b3" data-class="layer" class="layer">
                     <g data-id="bbox-xb51ea6e5-f914-448e-8f94-15e89b17f7b3" data-class="layer" class="layer bounding-box"/>
                     <g data-id="x81826f90-b8d4-4aab-a0dc-5caaa4e34e72" data-class="beam" class="beam">
                        <g data-id="bbox-x81826f90-b8d4-4aab-a0dc-5caaa4e34e72" data-class="beam" class="beam bounding-box">
                           <rect x="1258" y="584" height="175" width="764" fill="transparent"/>
                        </g>
                        <polygon points="1258,759 2022,759 2022,689 1258,689"/>
                        <polygon points="1715,654 2022,654 2022,584 1715,584"/>
                        <g data-id="x7f45743d-93dd-4614-a14b-78f0f970c435" data-class="note" class="note">
                           <g data-id="bbox-x7f45743d-93dd-4614-a14b-78f0f970c435" data-class="note" class="note bounding-box">
                              <rect x="1258" y="54" height="149" width="176" fill="transparent"/>
                           </g>
                           <g data-class="notehead" class="notehead">
                              <use href="#E0A4-1htat5n" x="1258" y="129" height="561px" width="561px"><animate id="s15eff82f-29a1-4a27-a8a2-941c57bcb3b2" attributeName="x" values="3510;1258;3510" dur="3s" repeatCount="indefinite"/></use>
                           </g>
                           <g data-id="s195jiod" data-class="stem" class="stem">
                              <g data-id="bbox-s195jiod" data-class="stem" class="stem bounding-box">
                                 <rect x="1258" y="143" height="609" width="14" fill="transparent"/>
                              </g>
                              <path d="M1265 150 L1265 745" stroke="currentColor" stroke-width="14"><animate id="sf0ef8bc2-291c-41f3-9136-425038e03a4d" attributeName="d" attributeType="XML" values="M3517 150 L3517 745; M1265 150 L1265 745; M3517 150 L3517 745" dur="3s" repeatCount="indefinite"/></path>
                           </g>
                        </g>
                        <g data-id="xe004e1b8-c490-4b15-9657-dfba3efb4855" data-class="note" class="note">
                           <g data-id="bbox-xe004e1b8-c490-4b15-9657-dfba3efb4855" data-class="note" class="note bounding-box">
                              <rect x="1708" y="54" height="149" width="176" fill="transparent"/>
                           </g>
                           <g data-class="notehead" class="notehead">
                              <use href="#E0A4-1htat5n" x="1708" y="129" height="561px" width="561px"><animate id="s25eb64d3-0988-451d-828b-009990003fd5" attributeName="x" values="4320;1708;4320" dur="3s" repeatCount="indefinite"/></use>
                           </g>
                           <g data-id="s1ovpuz9" data-class="stem" class="stem">
                              <g data-id="bbox-s1ovpuz9" data-class="stem" class="stem bounding-box">
                                 <rect x="1708" y="143" height="609" width="14" fill="transparent"/>
                              </g>
                              <path d="M1715 150 L1715 745" stroke="currentColor" stroke-width="14"><animate id="sb781cfee-cb6e-425e-aa4a-8a897bb1e1cd" attributeName="d" attributeType="XML" values="M4327 150 L4327 745; M1715 150 L1715 745; M4327 150 L4327 745" dur="3s" repeatCount="indefinite"/></path>
                           </g>
                        </g>
                        <g data-id="xb99dc8c3-69ce-428c-a4c7-ac320de8aba2" data-class="note" class="note">
                           <g data-id="bbox-xb99dc8c3-69ce-428c-a4c7-ac320de8aba2" data-class="note" class="note bounding-box">
                              <rect x="2008" y="54" height="149" width="176" fill="transparent"/>
                           </g>
                           <g data-class="notehead" class="notehead">
                              <use href="#E0A4-1htat5n" x="2008" y="129" height="561px" width="561px"><animate id="s1c40df24-3ce8-4007-8989-3e0abe4637f9" attributeName="x" values="4950;2008;4950" dur="3s" repeatCount="indefinite"/></use>
                           </g>
                           <g data-id="swto7z8" data-class="stem" class="stem">
                              <g data-id="bbox-swto7z8" data-class="stem" class="stem bounding-box">
                                 <rect x="2008" y="143" height="609" width="14" fill="transparent"/>
                              </g>
                              <path d="M2015 150 L2015 745" stroke="currentColor" stroke-width="14"><animate id="sfe5e406b-5be6-4620-b5b7-fa2aa9a2f010" attributeName="d" attributeType="XML" values="M4957 150 L4957 745; M2015 150 L2015 745; M4957 150 L4957 745" dur="3s" repeatCount="indefinite"/></path>
                           </g>
                        </g>
                     </g>
                     <g data-id="x8127b30f-e2aa-47e9-8764-4b99244f4395" data-class="beam" class="beam">
                        <g data-id="bbox-x8127b30f-e2aa-47e9-8764-4b99244f4395" data-class="beam" class="beam bounding-box">
                           <rect x="2308" y="584" height="175" width="764" fill="transparent"/>
                        </g>
                        <polygon points="2308,759 3072,759 3072,689 2308,689"/>
                        <polygon points="2765,654 3072,654 3072,584 2765,584"/>
                        <g data-id="x3dffaa1e-f7e8-4928-b9e8-0979f1695fd5" data-class="note" class="note">
                           <g data-id="bbox-x3dffaa1e-f7e8-4928-b9e8-0979f1695fd5" data-class="note" class="note bounding-box">
                              <rect x="2308" y="124" height="149" width="176" fill="transparent"/>
                           </g>
                           <g data-class="notehead" class="notehead">
                              <use href="#E0A4-1htat5n" x="2308" y="199" height="561px" width="561px"><animate id="s31eaa71b-eb5c-4e12-9275-879f353cc5de" attributeName="x" values="7200;2308;7200" dur="3s" repeatCount="indefinite"/></use>
                           </g>
                           <g data-id="s1fcmmbp" data-class="stem" class="stem">
                              <g data-id="bbox-s1fcmmbp" data-class="stem" class="stem bounding-box">
                                 <rect x="2308" y="213" height="539" width="14" fill="transparent"/>
                              </g>
                              <path d="M2315 220 L2315 745" stroke="currentColor" stroke-width="14"><animate id="s0a587ccb-60c1-4da0-9d5f-443d8b991427" attributeName="d" attributeType="XML" values="M7207 220 L7207 745; M2315 220 L2315 745; M7207 220 L7207 745" dur="3s" repeatCount="indefinite"/></path>
                           </g>
                        </g>
                        <g data-id="xbee7e829-2cfd-47f4-9440-be9e719af9e9" data-class="note" class="note">
                           <g data-id="bbox-xbee7e829-2cfd-47f4-9440-be9e719af9e9" data-class="note" class="note bounding-box">
                              <rect x="2758" y="124" height="149" width="176" fill="transparent"/>
                           </g>
                           <g data-class="notehead" class="notehead">
                              <use href="#E0A4-1htat5n" x="2758" y="199" height="561px" width="561px"><animate id="se098b6bc-285d-458c-98cd-4d4653ffc84d" attributeName="x" values="7740;2758;7740" dur="3s" repeatCount="indefinite"/></use>
                           </g>
                           <g data-id="sg3jlvj" data-class="stem" class="stem">
                              <g data-id="bbox-sg3jlvj" data-class="stem" class="stem bounding-box">
                                 <rect x="2758" y="213" height="539" width="14" fill="transparent"/>
                              </g>
                              <path d="M2765 220 L2765 745" stroke="currentColor" stroke-width="14"><animate id="sbdc47e61-84b2-494c-b96b-5e8071d8942c" attributeName="d" attributeType="XML" values="M7747 220 L7747 745; M2765 220 L2765 745; M7747 220 L7747 745" dur="3s" repeatCount="indefinite"/></path>
                           </g>
                        </g>
                        <g data-id="x7d56dc6d-e351-4b83-bc5c-f5d76b501c3e" data-class="note" class="note">
                           <g data-id="bbox-x7d56dc6d-e351-4b83-bc5c-f5d76b501c3e" data-class="note" class="note bounding-box">
                              <rect x="3058" y="124" height="149" width="176" fill="transparent"/>
                           </g>
                           <g data-class="notehead" class="notehead">
                              <use href="#E0A4-1htat5n" x="3058" y="199" height="561px" width="561px"><animate id="sfd9458f6-bed4-4bb7-9238-0c1b74bdcad5" attributeName="x" values="8460;3058;8460" dur="3s" repeatCount="indefinite"/></use>
                           </g>
                           <g data-id="s1ilw9gf" data-class="stem" class="stem">
                              <g data-id="bbox-s1ilw9gf" data-class="stem" class="stem bounding-box">
                                 <rect x="3058" y="213" height="539" width="14" fill="transparent"/>
                              </g>
                              <path d="M3065 220 L3065 745" stroke="currentColor" stroke-width="14"><animate id="s3eed3cf8-25e0-4755-9e2d-9b1a94279179" attributeName="d" attributeType="XML" values="M8467 220 L8467 745; M3065 220 L3065 745; M8467 220 L8467 745" dur="3s" repeatCount="indefinite"/></path>
                           </g>
                        </g>
                     </g>
                  </g>
               </g>
               <g data-id="beyxddp" data-class="barLine" class="barLine">
                  <g data-id="bbox-beyxddp" data-class="barLine" class="barLine bounding-box">
                     <rect x="3344" y="466" height="587" width="27" fill="transparent"/>
                  </g>
                  <path d="M3358 479 L3358 1039" stroke="currentColor" stroke-width="27"/>
               </g>
            </g>
            <g data-id="x3d78638f-3ff3-4423-87e4-7eeefe11eb11" data-class="measure" class="measure">
               <g data-id="bbox-x3d78638f-3ff3-4423-87e4-7eeefe11eb11" data-class="measure" class="measure bounding-box"/>
               <g data-id="x83dd882c-7c57-48b9-8d41-7a6f36fd1458" data-class="staff" class="staff">
                  <g data-id="bbox-x83dd882c-7c57-48b9-8d41-7a6f36fd1458" data-class="staff" class="staff bounding-box">
                     <rect x="3366" y="191" height="853" width="2374" fill="transparent"/>
                  </g>
                  <path d="M3371 479 L5735 479" stroke="currentColor" stroke-width="10"/>
                  <path d="M3371 619 L5735 619" stroke="currentColor" stroke-width="10"/>
                  <path d="M3371 759 L5735 759" stroke="currentColor" stroke-width="10"/>
                  <path d="M3371 899 L5735 899" stroke="currentColor" stroke-width="10"/>
                  <path d="M3371 1039 L5735 1039" stroke="currentColor" stroke-width="10"/>
                  <g data-class="ledgerLines" class="ledgerLines above">
                     <path d="M3474 339 L3724 339" stroke="currentColor" stroke-width="17"/>
                     <path d="M3924 339 L4174 339" stroke="currentColor" stroke-width="17"/>
                     <path d="M4224 339 L4474 339" stroke="currentColor" stroke-width="17"/>
                     <path d="M4635 339 L4885 339" stroke="currentColor" stroke-width="17"/>
                     <path d="M5085 339 L5335 339" stroke="currentColor" stroke-width="17"/>
                     <path d="M5385 339 L5635 339" stroke="currentColor" stroke-width="17"/>
                     <path d="M4635 199 L4885 199" stroke="currentColor" stroke-width="17"/>
                     <path d="M5085 199 L5335 199" stroke="currentColor" stroke-width="17"/>
                     <path d="M5385 199 L5635 199" stroke="currentColor" stroke-width="17"/>
                  </g>
                  <g data-id="x084e76e4-17e6-4579-aeaf-a90e5d017b6d" data-class="layer" class="layer">
                     <g data-id="bbox-x084e76e4-17e6-4579-aeaf-a90e5d017b6d" data-class="layer" class="layer bounding-box"/>
                     <g data-id="xc68a6cb6-f4d0-42d0-8466-1a64099c0a40" data-class="beam" class="beam">
                        <g data-id="bbox-xc68a6cb6-f4d0-42d0-8466-1a64099c0a40" data-class="beam" class="beam bounding-box">
                           <rect x="3511" y="584" height="175" width="764" fill="transparent"/>
                        </g>
                        <polygon points="3511,759 4275,759 4275,689 3511,689"/>
                        <polygon points="3968,654 4275,654 4275,584 3968,584"/>
                        <g data-id="x3426ba11-45bc-41b5-8799-149cd829a9a7" data-class="note" class="note">
                           <g data-id="bbox-x3426ba11-45bc-41b5-8799-149cd829a9a7" data-class="note" class="note bounding-box">
                              <rect x="3511" y="194" height="149" width="176" fill="transparent"/>
                           </g>
                           <g data-class="notehead" class="notehead">
                              <use href="#E0A4-1htat5n" x="3511" y="269" height="561px" width="561px"><animate id="s506c071d-e953-4e30-b255-7192f7e8f76f" attributeName="x" values="9540;3511;9540" dur="3s" repeatCount="indefinite"/></use>
                           </g>
                           <g data-id="s1mdtkjy" data-class="stem" class="stem">
                              <g data-id="bbox-s1mdtkjy" data-class="stem" class="stem bounding-box">
                                 <rect x="3511" y="283" height="469" width="14" fill="transparent"/>
                              </g>
                              <path d="M3518 290 L3518 745" stroke="currentColor" stroke-width="14"><animate id="s6ef2bda2-0726-44a5-a22b-12c49f5000f1" attributeName="d" attributeType="XML" values="M9547 290 L9547 745; M3518 290 L3518 745; M9547 290 L9547 745" dur="3s" repeatCount="indefinite"/></path>
                           </g>
                           <g data-id="x571f2b7f-9b13-464e-bfd9-55fa4917a92a" data-class="accid" class="accid">
                              <g data-id="bbox-x571f2b7f-9b13-464e-bfd9-55fa4917a92a" data-class="accid" class="accid bounding-box">
                                 <rect x="3511" y="269" height="0" width="0" fill="transparent"/>
                              </g>
                           </g>
                        </g>
                        <g data-id="x817eca74-21ef-417f-a760-49fdf218f2e5" data-class="note" class="note">
                           <g data-id="bbox-x817eca74-21ef-417f-a760-49fdf218f2e5" data-class="note" class="note bounding-box">
                              <rect x="3961" y="194" height="149" width="176" fill="transparent"/>
                           </g>
                           <g data-class="notehead" class="notehead">
                              <use href="#E0A4-1htat5n" x="3961" y="269" height="561px" width="561px"><animate id="sb2814366-5528-46c6-8780-a2b59c4d2d6e" attributeName="x" values="10170;3961;10170" dur="3s" repeatCount="indefinite"/></use>
                           </g>
                           <g data-id="s1dr8wyp" data-class="stem" class="stem">
                              <g data-id="bbox-s1dr8wyp" data-class="stem" class="stem bounding-box">
                                 <rect x="3961" y="283" height="469" width="14" fill="transparent"/>
                              </g>
                              <path d="M3968 290 L3968 745" stroke="currentColor" stroke-width="14"><animate id="sa8778f8b-abd0-4d8b-bc6b-dd494b24a46f" attributeName="d" attributeType="XML" values="M10177 290 L10177 745; M3968 290 L3968 745; M10177 290 L10177 745" dur="3s" repeatCount="indefinite"/></path>
                           </g>
                           <g data-id="x1d218e86-80c4-4c54-a6f9-f7799ba4c9bf" data-class="accid" class="accid">
                              <g data-id="bbox-x1d218e86-80c4-4c54-a6f9-f7799ba4c9bf" data-class="accid" class="accid bounding-box">
                                 <rect x="3961" y="269" height="0" width="0" fill="transparent"/>
                              </g>
                           </g>
                        </g>
                        <g data-id="xa2595074-9e1f-4824-aaff-0829f80e93a0" data-class="note" class="note">
                           <g data-id="bbox-xa2595074-9e1f-4824-aaff-0829f80e93a0" data-class="note" class="note bounding-box">
                              <rect x="4261" y="194" height="149" width="176" fill="transparent"/>
                           </g>
                           <g data-class="notehead" class="notehead">
                              <use href="#E0A4-1htat5n" x="4261" y="269" height="561px" width="561px"><animate id="s96a678b4-fc9a-4447-bb26-240b4c0c7c17" attributeName="x" values="10980;4261;10980" dur="3s" repeatCount="indefinite"/></use>
                           </g>
                           <g data-id="s4y00fd" data-class="stem" class="stem">
                              <g data-id="bbox-s4y00fd" data-class="stem" class="stem bounding-box">
                                 <rect x="4261" y="283" height="469" width="14" fill="transparent"/>
                              </g>
                              <path d="M4268 290 L4268 745" stroke="currentColor" stroke-width="14"><animate id="s7cf03195-84f6-4165-8b5b-92212e65b272" attributeName="d" attributeType="XML" values="M10987 290 L10987 745; M4268 290 L4268 745; M10987 290 L10987 745" dur="3s" repeatCount="indefinite"/></path>
                           </g>
                           <g data-id="x2eb26780-a145-40df-aa7e-0559924f0609" data-class="accid" class="accid">
                              <g data-id="bbox-x2eb26780-a145-40df-aa7e-0559924f0609" data-class="accid" class="accid bounding-box">
                                 <rect x="4261" y="269" height="0" width="0" fill="transparent"/>
                              </g>
                           </g>
                        </g>
                     </g>
                     <g data-id="x06652cd8-c0df-4e3c-a217-6ae2198cba45" data-class="beam" class="beam">
                        <g data-id="bbox-x06652cd8-c0df-4e3c-a217-6ae2198cba45" data-class="beam" class="beam bounding-box">
                           <rect x="4672" y="584" height="175" width="764" fill="transparent"/>
                        </g>
                        <polygon points="4672,759 5436,759 5436,689 4672,689"/>
                        <polygon points="5129,654 5436,654 5436,584 5129,584"/>
                        <g data-id="x9e91c2f1-47bc-490b-8b87-ee477c65369d" data-class="note" class="note">
                           <g data-id="bbox-x9e91c2f1-47bc-490b-8b87-ee477c65369d" data-class="note" class="note bounding-box">
                              <rect x="4672" y="124" height="149" width="176" fill="transparent"/>
                           </g>
                           <g data-class="notehead" class="notehead">
                              <use href="#E0A4-1htat5n" x="4672" y="199" height="561px" width="561px"><animate id="s446044ac-146b-4911-bdc3-cca1f5dcfd54" attributeName="x" values="12870;4672;12870" dur="3s" repeatCount="indefinite"/></use>
                           </g>
                           <g data-id="s185qi68" data-class="stem" class="stem">
                              <g data-id="bbox-s185qi68" data-class="stem" class="stem bounding-box">
                                 <rect x="4672" y="213" height="539" width="14" fill="transparent"/>
                              </g>
                              <path d="M4679 220 L4679 745" stroke="currentColor" stroke-width="14"><animate id="s5e97ea01-465b-44ab-a643-a5f20712c7b3" attributeName="d" attributeType="XML" values="M12877 220 L12877 745; M4679 220 L4679 745; M12877 220 L12877 745" dur="3s" repeatCount="indefinite"/></path>
                           </g>
                           <g data-id="x157e51e1-eb20-47f0-b252-0aacf9db5fda" data-class="accid" class="accid">
                              <g data-id="bbox-x157e51e1-eb20-47f0-b252-0aacf9db5fda" data-class="accid" class="accid bounding-box">
                                 <rect x="4507" y="0" height="389" width="110" fill="transparent"/>
                              </g>
                              <use href="#E262-1htat5n" x="4507" y="199" height="561px" width="561px"/>
                           </g>
                        </g>
                        <g data-id="x491a881c-cd35-49ce-934f-57cf75b2844d" data-class="note" class="note">
                           <g data-id="bbox-x491a881c-cd35-49ce-934f-57cf75b2844d" data-class="note" class="note bounding-box">
                              <rect x="5122" y="124" height="149" width="176" fill="transparent"/>
                           </g>
                           <g data-class="notehead" class="notehead">
                              <use href="#E0A4-1htat5n" x="5122" y="199" height="561px" width="561px"><animate id="s32e93a57-277f-4659-a28f-649ad073f3d4" attributeName="x" values="13680;5122;13680" dur="3s" repeatCount="indefinite"/></use>
                           </g>
                           <g data-id="sktja12" data-class="stem" class="stem">
                              <g data-id="bbox-sktja12" data-class="stem" class="stem bounding-box">
                                 <rect x="5122" y="213" height="539" width="14" fill="transparent"/>
                              </g>
                              <path d="M5129 220 L5129 745" stroke="currentColor" stroke-width="14"><animate id="sc5ea9017-7616-4964-aa3d-fe99b64860f9" attributeName="d" attributeType="XML" values="M13687 220 L13687 745; M5129 220 L5129 745; M13687 220 L13687 745" dur="3s" repeatCount="indefinite"/></path>
                           </g>
                           <g data-id="x0297054c-9e63-4914-a2f8-4ffd86ad6689" data-class="accid" class="accid">
                              <g data-id="bbox-x0297054c-9e63-4914-a2f8-4ffd86ad6689" data-class="accid" class="accid bounding-box">
                                 <rect x="5122" y="199" height="0" width="0" fill="transparent"/>
                              </g>
                           </g>
                        </g>
                        <g data-id="xdf84a722-ae17-457d-a0c5-7f66283db490" data-class="note" class="note">
                           <g data-id="bbox-xdf84a722-ae17-457d-a0c5-7f66283db490" data-class="note" class="note bounding-box">
                              <rect x="5422" y="124" height="149" width="176" fill="transparent"/>
                           </g>
                           <g data-class="notehead" class="notehead">
                              <use href="#E0A4-1htat5n" x="5422" y="199" height="561px" width="561px"><animate id="sa5b33924-8502-4e7c-a4c2-de0e4a75d018" attributeName="x" values="14310;5422;14310" dur="3s" repeatCount="indefinite"/></use>
                           </g>
                           <g data-id="symozkf" data-class="stem" class="stem">
                              <g data-id="bbox-symozkf" data-class="stem" class="stem bounding-box">
                                 <rect x="5422" y="213" height="539" width="14" fill="transparent"/>
                              </g>
                              <path d="M5429 220 L5429 745" stroke="currentColor" stroke-width="14"><animate id="sf65984e4-17d1-4d50-b837-345c94d1e78d" attributeName="d" attributeType="XML" values="M14317 220 L14317 745; M5429 220 L5429 745; M14317 220 L14317 745" dur="3s" repeatCount="indefinite"/></path>
                           </g>
                           <g data-id="xdc24f935-7a68-40cd-b4f0-519d31315575" data-class="accid" class="accid">
                              <g data-id="bbox-xdc24f935-7a68-40cd-b4f0-519d31315575" data-class="accid" class="accid bounding-box">
                                 <rect x="5422" y="199" height="0" width="0" fill="transparent"/>
                              </g>
                           </g>
                        </g>
                     </g>
                  </g>
               </g>
               <g data-id="b42ogi2" data-class="barLine" class="barLine">
                  <g data-id="bbox-b42ogi2" data-class="barLine" class="barLine bounding-box">
                     <rect x="5708" y="466" height="587" width="27" fill="transparent"/>
                  </g>
                  <path d="M5722 479 L5722 1039" stroke="currentColor" stroke-width="27"/>
               </g>
            </g>
            <g data-id="xa39cab03-c9fb-4feb-893f-00f4d5de2adb" data-class="measure" class="measure">
               <g data-id="bbox-xa39cab03-c9fb-4feb-893f-00f4d5de2adb" data-class="measure" class="measure bounding-box"/>
               <g data-id="xec1669ab-41e3-4a10-8916-5d6af668e446" data-class="staff" class="staff">
                  <g data-id="bbox-xec1669ab-41e3-4a10-8916-5d6af668e446" data-class="staff" class="staff bounding-box">
                     <rect x="5730" y="191" height="853" width="840" fill="transparent"/>
                  </g>
                  <path d="M5735 479 L6565 479" stroke="currentColor" stroke-width="10"/>
                  <path d="M5735 619 L6565 619" stroke="currentColor" stroke-width="10"/>
                  <path d="M5735 759 L6565 759" stroke="currentColor" stroke-width="10"/>
                  <path d="M5735 899 L6565 899" stroke="currentColor" stroke-width="10"/>
                  <path d="M5735 1039 L6565 1039" stroke="currentColor" stroke-width="10"/>
                  <g data-class="ledgerLines" class="ledgerLines above">
                     <path d="M5838 339 L6088 339" stroke="currentColor" stroke-width="17"/>
                     <path d="M5838 199 L6088 199" stroke="currentColor" stroke-width="17"/>
                  </g>
                  <g data-id="x450ac095-ff20-4dea-98ab-42ed493812da" data-class="layer" class="layer">
                     <g data-id="bbox-x450ac095-ff20-4dea-98ab-42ed493812da" data-class="layer" class="layer bounding-box"/>
                     <g data-id="xb7c0f4f6-1adf-4193-98c8-06128e0c5519" data-class="note" class="note">
                        <g data-id="bbox-xb7c0f4f6-1adf-4193-98c8-06128e0c5519" data-class="note" class="note bounding-box">
                           <rect x="5875" y="54" height="149" width="176" fill="transparent"/>
                        </g>
                        <g data-class="notehead" class="notehead">
                           <use href="#E0A4-1htat5n" x="5875" y="129" height="561px" width="561px"><animate id="s88c46443-1c3d-4b9d-985e-36d14f0dbd78" attributeName="x" values="16110;5875;16110" dur="3s" repeatCount="indefinite"/></use>
                        </g>
                        <g data-id="sg66lnd" data-class="stem" class="stem">
                           <g data-id="bbox-sg66lnd" data-class="stem" class="stem bounding-box">
                              <rect x="5875" y="143" height="623" width="14" fill="transparent"/>
                           </g>
                           <path d="M5882 150 L5882 759" stroke="currentColor" stroke-width="14"><animate id="sf9b4b22a-8f2b-4c08-9adb-f7980db79f2a" attributeName="d" attributeType="XML" values="M16117 150 L16117 689; M5882 150 L5882 759; M16117 150 L16117 689" dur="3s" repeatCount="indefinite"/></path>
                        </g>
                     </g>
                  </g>
               </g>
               <g data-id="b15nxm19" data-class="barLine" class="barLine">
                  <g data-id="bbox-b15nxm19" data-class="barLine" class="barLine bounding-box">
                     <rect x="6565" y="0" height="0" width="0" fill="transparent"/>
                  </g>
               </g>
            </g>
            <g data-id="smlkef5" data-class="systemMilestoneEnd" class="systemMilestoneEnd x5c2bac79-50bd-4531-9af8-1ba13b2fcda5"/>
         </g>
         <g data-id="p1b7jh0h" data-class="pageMilestoneEnd" class="pageMilestoneEnd srxfrjw">
            <g data-id="bbox-p1b7jh0h" data-class="pageMilestoneEnd" class="pageMilestoneEnd bounding-box"/>
         </g>
         <g data-id="p1ec0mvu" data-class="pageMilestoneEnd" class="pageMilestoneEnd xac999ca0-608b-4572-8504-e901be171ca4">
            <g data-id="bbox-p1ec0mvu" data-class="pageMilestoneEnd" class="pageMilestoneEnd bounding-box"/>
         </g>
      </g>
   </svg>
</svg>