<svg width="804px" height="302px" version="1.1" xmlns="http://www.w3.org/2000/svg" xmlns:xlink="http://www.w3.org/1999/xlink" xmlns:mei="http://www.music-encoding.org/ns/mei" overflow="visible">
   <desc>Engraved by Verovio 4.4.0-dev-73f28d6</desc>
   <defs>
      <symbol id="E0A3-13lfxwh" viewBox="0 0 1000 1000" overflow="inherit">
         <path transform="scale(1,-1)" d="M278 64c0 22 -17 39 -43 39c-12 0 -26 -3 -41 -10c-85 -43 -165 -94 -165 -156c5 -25 15 -32 49 -32c67 11 200 95 200 159zM0 -36c0 68 73 174 200 174c66 0 114 -39 114 -97c0 -84 -106 -173 -218 -173c-64 0 -96 32 -96 96z" />
      </symbol>
      <symbol id="E0A4-13lfxwh" viewBox="0 0 1000 1000" overflow="inherit">
         <path transform="scale(1,-1)" d="M0 -39c0 68 73 172 200 172c66 0 114 -37 114 -95c0 -84 -106 -171 -218 -171c-64 0 -96 30 -96 94z" />
      </symbol>
      <symbol id="E050-13lfxwh" viewBox="0 0 1000 1000" overflow="inherit">
         <path transform="scale(1,-1)" d="M441 -245c-23 -4 -48 -6 -76 -6c-59 0 -102 7 -130 20c-88 42 -150 93 -187 154c-26 44 -43 103 -48 176c0 6 -1 13 -1 19c0 54 15 111 45 170c29 57 65 106 110 148s96 85 153 127c-3 16 -8 46 -13 92c-4 43 -5 73 -5 89c0 117 16 172 69 257c34 54 64 82 89 82 c21 0 43 -30 69 -92s39 -115 41 -159v-15c0 -109 -21 -162 -67 -241c-13 -20 -63 -90 -98 -118c-13 -9 -25 -19 -37 -29l31 -181c8 1 18 2 28 2c58 0 102 -12 133 -35c59 -43 92 -104 98 -184c1 -7 1 -15 1 -22c0 -123 -87 -209 -181 -248c8 -57 17 -110 25 -162 c5 -31 6 -58 6 -80c0 -30 -5 -53 -14 -70c-35 -64 -88 -99 -158 -103c-5 0 -11 -1 -16 -1c-37 0 -72 10 -108 27c-50 24 -77 59 -80 105v11c0 29 7 55 20 76c18 28 45 42 79 44h6c49 0 93 -42 97 -87v-9c0 -51 -34 -86 -105 -106c17 -24 51 -36 102 -36c62 0 116 43 140 85 c9 16 13 41 13 74c0 20 -1 42 -5 67c-8 53 -18 106 -26 159zM461 939c-95 0 -135 -175 -135 -286c0 -24 2 -48 5 -71c50 39 92 82 127 128c40 53 60 100 60 140v8c-4 53 -22 81 -55 81h-2zM406 119l54 -326c73 25 110 78 110 161c0 7 0 15 -1 23c-7 95 -57 142 -151 142h-12 zM382 117c-72 -2 -128 -47 -128 -120v-7c2 -46 43 -99 75 -115c-3 -2 -7 -5 -10 -10c-70 33 -116 88 -123 172v11c0 68 44 126 88 159c23 17 49 29 78 36l-29 170c-21 -13 -52 -37 -92 -73c-50 -44 -86 -84 -109 -119c-45 -69 -67 -130 -67 -182v-13c5 -68 35 -127 93 -176 s125 -73 203 -73c25 0 50 3 75 9c-19 111 -36 221 -54 331z" />
      </symbol>
      <symbol id="E260-13lfxwh" viewBox="0 0 1000 1000" overflow="inherit">
         <path transform="scale(1,-1)" d="M20 110c32 16 54 27 93 27c26 0 35 -3 54 -13c13 -7 24 -20 27 -38l4 -25c0 -28 -16 -57 -45 -89c-23 -25 -39 -44 -65 -68l-88 -79v644h20v-359zM90 106c-32 0 -48 -10 -70 -29v-194c31 31 54 59 71 84c21 32 32 59 32 84c0 9 1 16 1 20c0 14 -3 21 -11 30l-8 3z" />
      </symbol>
      <symbol id="E261-13lfxwh" viewBox="0 0 1000 1000" overflow="inherit">
         <path transform="scale(1,-1)" d="M0 -188v539h18v-191l139 22v-533h-17v186zM18 -100l122 17v176l-122 -19v-174z" />
      </symbol>
      <symbol id="E08B-13lfxwh" viewBox="0 0 1000 1000" overflow="inherit">
         <path transform="scale(1,-1)" d="M188 200c-42 -22 -63 -69 -63 -141v-119c0 -39 7 -70 19 -94s26 -40 44 -48v402zM0 -0c0 127 80 220 186 246v72h32l-6 -72c33 0 71 0 101 -11c54 -20 102 -65 102 -135c0 -16 -4 -30 -13 -43s-20 -24 -32 -29l-20 -8l-23 -3c-22 2 -41 8 -55 21s-21 31 -26 51 c0 38 45 80 79 80c12 0 19 3 19 10c0 6 -6 12 -15 18c-19 13 -47 24 -79 24c-10 0 -20 -1 -32 -5v-431c15 -3 12 -4 30 -4c57 0 100 51 121 93l17 39c3 13 5 25 5 35h26c-6 -70 -28 -121 -66 -152s-82 -47 -133 -47v-68h-30v72c-57 10 -122 54 -153 109c-7 12 -13 26 -19 42 c-11 29 -16 61 -16 96z" />
      </symbol>
   </defs>
   <style type="text/css">g.page-margin{font-family:Times,serif;} g.ending, g.fing, g.reh, g.tempo{font-weight:bold;} g.dir, g.dynam, g.mNum{font-style:italic;} g.label{font-weight:normal;}</style>
   <svg class="definition-scale" color="black" viewBox="0 0 20080 7540">
      <g class="page-margin" transform="translate(1000, 3000)">
         <g data-id="x21582c08-3ece-48c9-9095-b5ff4a5f63f0" data-class="mdiv" class="mdiv pageMilestone">
            <g data-id="bbox-x21582c08-3ece-48c9-9095-b5ff4a5f63f0" data-class="mdiv" class="mdiv bounding-box" />
         </g>
         <g data-id="s1dj40yt" data-class="score" class="score pageMilestone">
            <g data-id="bbox-s1dj40yt" data-class="score" class="score bounding-box" />
         </g>
         <g data-id="s1tuyo2q" data-class="system" class="system">
            <g data-id="bbox-s1tuyo2q" data-class="system" class="system bounding-box" />
            <g data-id="x2f48e266-c3ef-4271-86c5-655dbbf0787d" data-class="section" class="section systemMilestone" />
            <g data-id="p1354yi0" data-class="pb" class="pb" />
            <g data-id="s1mepeup" data-class="sb" class="sb" />
            <g data-id="xe478579c-bbe8-4024-b030-790f8cd3a91f" data-class="measure" class="measure">
               <g data-id="bbox-xe478579c-bbe8-4024-b030-790f8cd3a91f" data-class="measure" class="measure bounding-box" />
               <g data-id="xb4b68718-9e9e-4f57-a06c-aeee4911a1e5" data-class="staff" class="staff">
                  <g data-id="bbox-xb4b68718-9e9e-4f57-a06c-aeee4911a1e5" data-class="staff" class="staff bounding-box">
                     <rect x="-5" y="427" height="586" width="2303" fill="transparent" />
                  </g>
                  <path d="M0 432 L2293 432" stroke="currentColor" stroke-width="10" />
                  <path d="M0 576 L2293 576" stroke="currentColor" stroke-width="10" />
                  <path d="M0 720 L2293 720" stroke="currentColor" stroke-width="10" />
                  <path d="M0 864 L2293 864" stroke="currentColor" stroke-width="10" />
                  <path d="M0 1008 L2293 1008" stroke="currentColor" stroke-width="10" />
                  <g data-id="cac1ryq" data-class="clef" class="clef">
                     <g data-id="bbox-cac1ryq" data-class="clef" class="clef bounding-box">
                        <rect x="72" y="240" height="1001" width="372" fill="transparent" />
                     </g>
                     <use href="#E050-13lfxwh" x="72" y="864" height="576px" width="576px" />
                  </g>
                  <g data-id="k1637nw" data-class="keySig" class="keySig">
                     <g data-id="bbox-k1637nw" data-class="keySig" class="keySig bounding-box">
                        <rect x="588" y="234" height="658" width="402" fill="transparent" />
                     </g>
                     <g data-id="k17ye3te" data-class="keyAccid" class="keyAccid">
                        <use href="#E260-13lfxwh" x="588" y="720" height="576px" width="576px" />
                     </g>
                     <g data-id="k1wi8d49" data-class="keyAccid" class="keyAccid">
                        <use href="#E260-13lfxwh" x="732" y="504" height="576px" width="576px" />
                     </g>
                     <g data-id="k3afgre" data-class="keyAccid" class="keyAccid">
                        <use href="#E260-13lfxwh" x="876" y="792" height="576px" width="576px" />
                     </g>
                  </g>
                  <g data-id="m1gktyah" data-class="meterSig" class="meterSig">
                     <g data-id="bbox-m1gktyah" data-class="meterSig" class="meterSig bounding-box">
                        <rect x="1134" y="537" height="366" width="240" fill="transparent" />
                     </g>
                     <use href="#E08B-13lfxwh" x="1134" y="720" height="576px" width="576px" />
                  </g>
                  <g data-id="x9c015460-42fe-4ea3-b036-0a6ad9ffcb09" data-class="layer" class="layer">
                     <g data-id="bbox-x9c015460-42fe-4ea3-b036-0a6ad9ffcb09" data-class="layer" class="layer bounding-box" />
                     <g data-id="xc5b4d269-14fc-4491-a241-c6f6e70ab5f3" data-class="note" class="note">
                        <g data-id="bbox-xc5b4d269-14fc-4491-a241-c6f6e70ab5f3" data-class="note" class="note bounding-box">
                           <rect x="1590" y="427" height="153" width="180" fill="transparent" />
                        </g>
                        <g data-class="notehead" class="notehead">
                           <use href="#E0A4-13lfxwh" x="1590" y="504" height="576px" width="576px" />
                        </g>
                        <g data-id="sg4zffa" data-class="stem" class="stem">
                           <g data-id="bbox-sg4zffa" data-class="stem" class="stem bounding-box">
                              <rect x="1590" y="519" height="496" width="14" fill="transparent" />
                           </g>
                           <path d="M1597 526 L1597 1008" stroke="currentColor" stroke-width="14" />
                        </g>
                        <g data-id="x5d9ef04e-20cd-4d9c-bc6a-dfb2007e9fcd" data-class="accid" class="accid">
                           <g data-id="bbox-x5d9ef04e-20cd-4d9c-bc6a-dfb2007e9fcd" data-class="accid" class="accid bounding-box">
                              <rect x="1590" y="504" height="0" width="0" fill="transparent" />
                           </g>
                        </g>
                     </g>
                  </g>
               </g>
               <g data-id="b1i27m22" data-class="barLine" class="barLine">
                  <g data-id="bbox-b1i27m22" data-class="barLine" class="barLine bounding-box">
                     <rect x="2266" y="419" height="603" width="27" fill="transparent" />
                  </g>
                  <path d="M2280 432 L2280 1008" stroke="currentColor" stroke-width="27" />
               </g>
            </g>
            <g data-id="x77df5e30-016c-4251-a20f-e62ca75dc2a7" data-class="measure" class="measure">
               <g data-id="bbox-x77df5e30-016c-4251-a20f-e62ca75dc2a7" data-class="measure" class="measure bounding-box" />
               <g data-id="xb36f4e80-9330-48da-8c7d-64d62654af8a" data-class="staff" class="staff">
                  <g data-id="bbox-xb36f4e80-9330-48da-8c7d-64d62654af8a" data-class="staff" class="staff bounding-box">
                     <rect x="2288" y="427" height="586" width="2927" fill="transparent" />
                  </g>
                  <path d="M2293 432 L5210 432" stroke="currentColor" stroke-width="10" />
                  <path d="M2293 576 L5210 576" stroke="currentColor" stroke-width="10" />
                  <path d="M2293 720 L5210 720" stroke="currentColor" stroke-width="10" />
                  <path d="M2293 864 L5210 864" stroke="currentColor" stroke-width="10" />
                  <path d="M2293 1008 L5210 1008" stroke="currentColor" stroke-width="10" />
                  <g data-id="xd33658f2-bf9a-4dae-af16-e85a0c9900bd" data-class="layer" class="layer">
                     <g data-id="bbox-xd33658f2-bf9a-4dae-af16-e85a0c9900bd" data-class="layer" class="layer bounding-box" />
                     <g data-id="x878bb189-c321-4554-b326-340be004db36" data-class="note" class="note">
                        <g data-id="bbox-x878bb189-c321-4554-b326-340be004db36" data-class="note" class="note bounding-box">
                           <rect x="2437" y="643" height="153" width="180" fill="transparent" />
                        </g>
                        <g data-class="notehead" class="notehead">
                           <use href="#E0A4-13lfxwh" x="2437" y="720" height="576px" width="576px" />
                        </g>
                        <g data-id="s1a2olen" data-class="stem" class="stem">
                           <g data-id="bbox-s1a2olen" data-class="stem" class="stem bounding-box">
                              <rect x="2437" y="735" height="472" width="14" fill="transparent" />
                           </g>
                           <path d="M2444 742 L2444 1200" stroke="currentColor" stroke-width="14" />
                        </g>
                        <g data-id="x5a81261b-1a50-4645-8ce7-2568bf2a866c" data-class="accid" class="accid">
                           <g data-id="bbox-x5a81261b-1a50-4645-8ce7-2568bf2a866c" data-class="accid" class="accid bounding-box">
                              <rect x="2437" y="720" height="0" width="0" fill="transparent" />
                           </g>
                        </g>
                     </g>
                     <g data-id="x56680391-9fe2-4834-840c-f931da001436" data-class="note" class="note">
                        <g data-id="bbox-x56680391-9fe2-4834-840c-f931da001436" data-class="note" class="note bounding-box">
                           <rect x="3127" y="643" height="153" width="180" fill="transparent" />
                        </g>
                        <g data-class="notehead" class="notehead">
                           <use href="#E0A4-13lfxwh" x="3127" y="720" height="576px" width="576px" />
                        </g>
                        <g data-id="s15bg23c" data-class="stem" class="stem">
                           <g data-id="bbox-s15bg23c" data-class="stem" class="stem bounding-box">
                              <rect x="3127" y="735" height="472" width="14" fill="transparent" />
                           </g>
                           <path d="M3134 742 L3134 1200" stroke="currentColor" stroke-width="14" />
                        </g>
                        <g data-id="x2f190c2c-0c7b-48ab-ab1d-d0bb9dd6776e" data-class="accid" class="accid">
                           <g data-id="bbox-x2f190c2c-0c7b-48ab-ab1d-d0bb9dd6776e" data-class="accid" class="accid bounding-box">
                              <rect x="3127" y="720" height="0" width="0" fill="transparent" />
                           </g>
                        </g>
                     </g>
                     <g data-id="x432db60c-4b37-43a6-9519-f418f5b822bd" data-class="note" class="note">
                        <g data-id="bbox-x432db60c-4b37-43a6-9519-f418f5b822bd" data-class="note" class="note bounding-box">
                           <rect x="3817" y="643" height="153" width="180" fill="transparent" />
                        </g>
                        <g data-class="notehead" class="notehead">
                           <use href="#E0A4-13lfxwh" x="3817" y="720" height="576px" width="576px" />
                        </g>
                        <g data-id="s1hurumk" data-class="stem" class="stem">
                           <g data-id="bbox-s1hurumk" data-class="stem" class="stem bounding-box">
                              <rect x="3817" y="735" height="472" width="14" fill="transparent" />
                           </g>
                           <path d="M3824 742 L3824 1200" stroke="currentColor" stroke-width="14" />
                        </g>
                        <g data-id="xa8e3e0ca-6b66-4e27-8aa4-f4d8615cbdff" data-class="accid" class="accid">
                           <g data-id="bbox-xa8e3e0ca-6b66-4e27-8aa4-f4d8615cbdff" data-class="accid" class="accid bounding-box">
                              <rect x="3817" y="720" height="0" width="0" fill="transparent" />
                           </g>
                        </g>
                     </g>
                     <g data-id="x3f4f6750-3953-4ed8-88dc-7e09ec2c919e" data-class="note" class="note">
                        <g data-id="bbox-x3f4f6750-3953-4ed8-88dc-7e09ec2c919e" data-class="note" class="note bounding-box">
                           <rect x="4507" y="643" height="153" width="180" fill="transparent" />
                        </g>
                        <g data-class="notehead" class="notehead">
                           <use href="#E0A4-13lfxwh" x="4507" y="720" height="576px" width="576px" />
                        </g>
                        <g data-id="s1kzeato" data-class="stem" class="stem">
                           <g data-id="bbox-s1kzeato" data-class="stem" class="stem bounding-box">
                              <rect x="4507" y="735" height="472" width="14" fill="transparent" />
                           </g>
                           <path d="M4514 742 L4514 1200" stroke="currentColor" stroke-width="14" />
                        </g>
                        <g data-id="x686849c5-1eb1-4ae8-b630-49ee917710b9" data-class="accid" class="accid">
                           <g data-id="bbox-x686849c5-1eb1-4ae8-b630-49ee917710b9" data-class="accid" class="accid bounding-box">
                              <rect x="4507" y="720" height="0" width="0" fill="transparent" />
                           </g>
                        </g>
                     </g>
                  </g>
               </g>
               <g data-id="b291t24" data-class="barLine" class="barLine">
                  <g data-id="bbox-b291t24" data-class="barLine" class="barLine bounding-box">
                     <rect x="5183" y="419" height="603" width="27" fill="transparent" />
                  </g>
                  <path d="M5197 432 L5197 1008" stroke="currentColor" stroke-width="27" />
               </g>
            </g>
            <g data-id="xe900d6ee-9668-4be9-925f-dec9c9c1850b" data-class="measure" class="measure">
               <g data-id="bbox-xe900d6ee-9668-4be9-925f-dec9c9c1850b" data-class="measure" class="measure bounding-box" />
               <g data-id="x4ef33c15-4471-4c6b-b88e-1ad7d1343898" data-class="staff" class="staff">
                  <g data-id="bbox-x4ef33c15-4471-4c6b-b88e-1ad7d1343898" data-class="staff" class="staff bounding-box">
                     <rect x="5205" y="427" height="586" width="2927" fill="transparent" />
                  </g>
                  <path d="M5210 432 L8127 432" stroke="currentColor" stroke-width="10" />
                  <path d="M5210 576 L8127 576" stroke="currentColor" stroke-width="10" />
                  <path d="M5210 720 L8127 720" stroke="currentColor" stroke-width="10" />
                  <path d="M5210 864 L8127 864" stroke="currentColor" stroke-width="10" />
                  <path d="M5210 1008 L8127 1008" stroke="currentColor" stroke-width="10" />
                  <g data-id="x81eafb7e-cb34-424e-a207-296895ea266d" data-class="layer" class="layer">
                     <g data-id="bbox-x81eafb7e-cb34-424e-a207-296895ea266d" data-class="layer" class="layer bounding-box" />
                     <g data-id="x2d9e58cc-9e15-44c5-a19c-8758756f38ea" data-class="note" class="note">
                        <g data-id="bbox-x2d9e58cc-9e15-44c5-a19c-8758756f38ea" data-class="note" class="note bounding-box">
                           <rect x="5354" y="643" height="153" width="180" fill="transparent" />
                        </g>
                        <g data-class="notehead" class="notehead">
                           <use href="#E0A4-13lfxwh" x="5354" y="720" height="576px" width="576px" />
                        </g>
                        <g data-id="s13xvr73" data-class="stem" class="stem">
                           <g data-id="bbox-s13xvr73" data-class="stem" class="stem bounding-box">
                              <rect x="5520" y="233" height="472" width="14" fill="transparent" />
                           </g>
                           <path d="M5527 698 L5527 240" stroke="currentColor" stroke-width="14" />
                        </g>
                        <g data-id="x6e9fcdc3-d64b-4440-9732-9a8fda21edd0" data-class="accid" class="accid">
                           <g data-id="bbox-x6e9fcdc3-d64b-4440-9732-9a8fda21edd0" data-class="accid" class="accid bounding-box">
                              <rect x="5354" y="720" height="0" width="0" fill="transparent" />
                           </g>
                        </g>
                     </g>
                     <g data-id="x3f2be823-03bb-4c14-a2f5-83ae290622f7" data-class="note" class="note">
                        <g data-id="bbox-x3f2be823-03bb-4c14-a2f5-83ae290622f7" data-class="note" class="note bounding-box">
                           <rect x="6044" y="643" height="153" width="180" fill="transparent" />
                        </g>
                        <g data-class="notehead" class="notehead">
                           <use href="#E0A4-13lfxwh" x="6044" y="720" height="576px" width="576px" />
                        </g>
                        <g data-id="srijxmx" data-class="stem" class="stem">
                           <g data-id="bbox-srijxmx" data-class="stem" class="stem bounding-box">
                              <rect x="6210" y="233" height="472" width="14" fill="transparent" />
                           </g>
                           <path d="M6217 698 L6217 240" stroke="currentColor" stroke-width="14" />
                        </g>
                        <g data-id="x84fbdd7b-c43b-44cf-a0de-8c1d94030560" data-class="accid" class="accid">
                           <g data-id="bbox-x84fbdd7b-c43b-44cf-a0de-8c1d94030560" data-class="accid" class="accid bounding-box">
                              <rect x="6044" y="720" height="0" width="0" fill="transparent" />
                           </g>
                        </g>
                     </g>
                     <g data-id="x10efd617-ec21-4483-a76e-fe0c49140977" data-class="note" class="note">
                        <g data-id="bbox-x10efd617-ec21-4483-a76e-fe0c49140977" data-class="note" class="note bounding-box">
                           <rect x="6734" y="643" height="153" width="180" fill="transparent" />
                        </g>
                        <g data-class="notehead" class="notehead">
                           <use href="#E0A4-13lfxwh" x="6734" y="720" height="576px" width="576px" />
                        </g>
                        <g data-id="s83g5da" data-class="stem" class="stem">
                           <g data-id="bbox-s83g5da" data-class="stem" class="stem bounding-box">
                              <rect x="6900" y="233" height="472" width="14" fill="transparent" />
                           </g>
                           <path d="M6907 698 L6907 240" stroke="currentColor" stroke-width="14" />
                        </g>
                        <g data-id="x2d01ed82-179e-49e8-81c8-632b4a99344f" data-class="accid" class="accid">
                           <g data-id="bbox-x2d01ed82-179e-49e8-81c8-632b4a99344f" data-class="accid" class="accid bounding-box">
                              <rect x="6734" y="720" height="0" width="0" fill="transparent" />
                           </g>
                        </g>
                     </g>
                     <g data-id="xb28f2d12-d936-42de-b8d3-c39ecfd41562" data-class="note" class="note">
                        <g data-id="bbox-xb28f2d12-d936-42de-b8d3-c39ecfd41562" data-class="note" class="note bounding-box">
                           <rect x="7424" y="643" height="153" width="180" fill="transparent" />
                        </g>
                        <g data-class="notehead" class="notehead">
                           <use href="#E0A4-13lfxwh" x="7424" y="720" height="576px" width="576px" />
                        </g>
                        <g data-id="szr9biz" data-class="stem" class="stem">
                           <g data-id="bbox-szr9biz" data-class="stem" class="stem bounding-box">
                              <rect x="7590" y="233" height="472" width="14" fill="transparent" />
                           </g>
                           <path d="M7597 698 L7597 240" stroke="currentColor" stroke-width="14" />
                        </g>
                        <g data-id="xe2629623-6d58-40a9-b345-8069f71b18c1" data-class="accid" class="accid">
                           <g data-id="bbox-xe2629623-6d58-40a9-b345-8069f71b18c1" data-class="accid" class="accid bounding-box">
                              <rect x="7424" y="720" height="0" width="0" fill="transparent" />
                           </g>
                        </g>
                     </g>
                  </g>
                  <g data-id="x00cf4ec0-4536-445e-b8c2-419b7843cbef" data-class="layer" class="layer">
                     <g data-id="bbox-x00cf4ec0-4536-445e-b8c2-419b7843cbef" data-class="layer" class="layer bounding-box" />
                     <g data-id="xee281fe6-9984-4a7f-b109-0b4fec272aae" data-class="note" class="note">
                        <g data-id="bbox-xee281fe6-9984-4a7f-b109-0b4fec272aae" data-class="note" class="note bounding-box">
                           <rect x="5354" y="785" height="155" width="180" fill="transparent" />
                        </g>
                        <g data-class="notehead" class="notehead">
                           <use href="#E0A3-13lfxwh" x="5354" y="864" height="576px" width="576px" />
                        </g>
                        <g data-id="sk1yqf7" data-class="stem" class="stem">
                           <g data-id="bbox-sk1yqf7" data-class="stem" class="stem bounding-box">
                              <rect x="5354" y="877" height="426" width="14" fill="transparent" />
                           </g>
                           <path d="M5361 884 L5361 1296" stroke="currentColor" stroke-width="14" />
                        </g>
                     </g>
                     <g data-id="xc3d414f9-6027-43de-92a1-2593b8306d68" data-class="note" class="note">
                        <g data-id="bbox-xc3d414f9-6027-43de-92a1-2593b8306d68" data-class="note" class="note bounding-box">
                           <rect x="6734" y="857" height="155" width="180" fill="transparent" />
                        </g>
                        <g data-class="notehead" class="notehead">
                           <use href="#E0A3-13lfxwh" x="6734" y="936" height="576px" width="576px" />
                        </g>
                        <g data-id="swgqrpv" data-class="stem" class="stem">
                           <g data-id="bbox-swgqrpv" data-class="stem" class="stem bounding-box">
                              <rect x="6734" y="949" height="402" width="14" fill="transparent" />
                           </g>
                           <path d="M6741 956 L6741 1344" stroke="currentColor" stroke-width="14" />
                        </g>
                     </g>
                  </g>
               </g>
               <g data-id="b17g4phz" data-class="barLine" class="barLine">
                  <g data-id="bbox-b17g4phz" data-class="barLine" class="barLine bounding-box">
                     <rect x="8100" y="419" height="603" width="27" fill="transparent" />
                  </g>
                  <path d="M8114 432 L8114 1008" stroke="currentColor" stroke-width="27" />
               </g>
            </g>
            <g data-id="xcb455122-46f9-4b2b-8bd3-89c1dfb5272e" data-class="measure" class="measure">
               <g data-id="bbox-xcb455122-46f9-4b2b-8bd3-89c1dfb5272e" data-class="measure" class="measure bounding-box" />
               <g data-id="x4a75edca-c73a-4332-a41b-5bfeb0f6ff16" data-class="staff" class="staff">
                  <g data-id="bbox-x4a75edca-c73a-4332-a41b-5bfeb0f6ff16" data-class="staff" class="staff bounding-box">
                     <rect x="8122" y="427" height="586" width="3053" fill="transparent" />
                  </g>
                  <path d="M8127 432 L11170 432" stroke="currentColor" stroke-width="10" />
                  <path d="M8127 576 L11170 576" stroke="currentColor" stroke-width="10" />
                  <path d="M8127 720 L11170 720" stroke="currentColor" stroke-width="10" />
                  <path d="M8127 864 L11170 864" stroke="currentColor" stroke-width="10" />
                  <path d="M8127 1008 L11170 1008" stroke="currentColor" stroke-width="10" />
                  <g data-id="x81f1e21c-f7d5-4c6f-8f61-38bf3505efa0" data-class="layer" class="layer">
                     <g data-id="bbox-x81f1e21c-f7d5-4c6f-8f61-38bf3505efa0" data-class="layer" class="layer bounding-box" />
                     <g data-id="x5f1ede62-983b-4d3c-8c6f-ad15bd2b1f25" data-class="note" class="note">
                        <g data-id="bbox-x5f1ede62-983b-4d3c-8c6f-ad15bd2b1f25" data-class="note" class="note bounding-box">
                           <rect x="8397" y="643" height="153" width="180" fill="transparent" />
                        </g>
                        <g data-class="notehead" class="notehead">
                           <use href="#E0A4-13lfxwh" x="8397" y="720" height="576px" width="576px" />
                        </g>
                        <g data-id="s1efhe3n" data-class="stem" class="stem">
                           <g data-id="bbox-s1efhe3n" data-class="stem" class="stem bounding-box">
                              <rect x="8563" y="233" height="472" width="14" fill="transparent" />
                           </g>
                           <path d="M8570 698 L8570 240" stroke="currentColor" stroke-width="14" />
                        </g>
                        <g data-id="xa6a8382a-ec20-45f9-b423-c8e8d0585001" data-class="accid" class="accid">
                           <g data-id="bbox-xa6a8382a-ec20-45f9-b423-c8e8d0585001" data-class="accid" class="accid bounding-box">
                              <rect x="8397" y="720" height="0" width="0" fill="transparent" />
                           </g>
                        </g>
                     </g>
                     <g data-id="xfafa904e-883c-475d-904d-466ad276d9db" data-class="note" class="note">
                        <g data-id="bbox-xfafa904e-883c-475d-904d-466ad276d9db" data-class="note" class="note bounding-box">
                           <rect x="9087" y="715" height="153" width="180" fill="transparent" />
                        </g>
                        <g data-class="notehead" class="notehead">
                           <use href="#E0A4-13lfxwh" x="9087" y="792" height="576px" width="576px" />
                        </g>
                        <g data-id="s10pvlga" data-class="stem" class="stem">
                           <g data-id="bbox-s10pvlga" data-class="stem" class="stem bounding-box">
                              <rect x="9253" y="281" height="496" width="14" fill="transparent" />
                           </g>
                           <path d="M9260 770 L9260 288" stroke="currentColor" stroke-width="14" />
                        </g>
                        <g data-id="x916204b0-4d57-454e-a01b-be0d1f9e7a52" data-class="accid" class="accid">
                           <g data-id="bbox-x916204b0-4d57-454e-a01b-be0d1f9e7a52" data-class="accid" class="accid bounding-box">
                              <rect x="9087" y="792" height="0" width="0" fill="transparent" />
                           </g>
                        </g>
                     </g>
                     <g data-id="x65f05f27-6509-4995-ab9b-31f3770e7fb6" data-class="note" class="note">
                        <g data-id="bbox-x65f05f27-6509-4995-ab9b-31f3770e7fb6" data-class="note" class="note bounding-box">
                           <rect x="9777" y="715" height="153" width="180" fill="transparent" />
                        </g>
                        <g data-class="notehead" class="notehead">
                           <use href="#E0A4-13lfxwh" x="9777" y="792" height="576px" width="576px" />
                        </g>
                        <g data-id="s1ay56h3" data-class="stem" class="stem">
                           <g data-id="bbox-s1ay56h3" data-class="stem" class="stem bounding-box">
                              <rect x="9943" y="281" height="496" width="14" fill="transparent" />
                           </g>
                           <path d="M9950 770 L9950 288" stroke="currentColor" stroke-width="14" />
                        </g>
                        <g data-id="xd34bc728-f9dd-424a-b53d-f06592409fc6" data-class="accid" class="accid">
                           <g data-id="bbox-xd34bc728-f9dd-424a-b53d-f06592409fc6" data-class="accid" class="accid bounding-box">
                              <rect x="9777" y="792" height="0" width="0" fill="transparent" />
                           </g>
                        </g>
                     </g>
                     <g data-id="xcd204215-e264-4f1d-aa97-628f7362014b" data-class="note" class="note">
                        <g data-id="bbox-xcd204215-e264-4f1d-aa97-628f7362014b" data-class="note" class="note bounding-box">
                           <rect x="10467" y="715" height="153" width="180" fill="transparent" />
                        </g>
                        <g data-class="notehead" class="notehead">
                           <use href="#E0A4-13lfxwh" x="10467" y="792" height="576px" width="576px" />
                        </g>
                        <g data-id="s9g46cw" data-class="stem" class="stem">
                           <g data-id="bbox-s9g46cw" data-class="stem" class="stem bounding-box">
                              <rect x="10633" y="281" height="496" width="14" fill="transparent" />
                           </g>
                           <path d="M10640 770 L10640 288" stroke="currentColor" stroke-width="14" />
                        </g>
                        <g data-id="xddee45d8-0ff6-4a88-9c63-10b39070d64d" data-class="accid" class="accid">
                           <g data-id="bbox-xddee45d8-0ff6-4a88-9c63-10b39070d64d" data-class="accid" class="accid bounding-box">
                              <rect x="10467" y="792" height="0" width="0" fill="transparent" />
                           </g>
                        </g>
                     </g>
                  </g>
                  <g data-id="x1f171347-9114-4c01-af22-453a5c197cc1" data-class="layer" class="layer">
                     <g data-id="bbox-x1f171347-9114-4c01-af22-453a5c197cc1" data-class="layer" class="layer bounding-box" />
                     <g data-id="xa1632ee6-7682-46fb-bf20-0f4210620168" data-class="note" class="note">
                        <g data-id="bbox-xa1632ee6-7682-46fb-bf20-0f4210620168" data-class="note" class="note bounding-box">
                           <rect x="8397" y="929" height="155" width="180" fill="transparent" />
                        </g>
                        <g data-class="notehead" class="notehead">
                           <use href="#E0A3-13lfxwh" x="8397" y="1008" height="576px" width="576px" />
                        </g>
                        <g data-id="sbja3uh" data-class="stem" class="stem">
                           <g data-id="bbox-sbja3uh" data-class="stem" class="stem bounding-box">
                              <rect x="8397" y="1021" height="378" width="14" fill="transparent" />
                           </g>
                           <path d="M8404 1028 L8404 1392" stroke="currentColor" stroke-width="14" />
                        </g>
                        <g data-id="x24d2dd21-46f9-4076-a070-4feb9bfdc6b4" data-class="accid" class="accid">
                           <g data-id="bbox-x24d2dd21-46f9-4076-a070-4feb9bfdc6b4" data-class="accid" class="accid bounding-box">
                              <rect x="8271" y="806" height="404" width="90" fill="transparent" />
                           </g>
                           <use href="#E261-13lfxwh" x="8271" y="1008" height="576px" width="576px" />
                        </g>
                     </g>
                     <g data-id="x86764a20-0f93-413d-ac8c-d24934f7bc3a" data-class="note" class="note">
                        <g data-id="bbox-x86764a20-0f93-413d-ac8c-d24934f7bc3a" data-class="note" class="note bounding-box">
                           <rect x="9777" y="857" height="155" width="180" fill="transparent" />
                        </g>
                        <g data-class="notehead" class="notehead">
                           <use href="#E0A3-13lfxwh" x="9777" y="936" height="576px" width="576px" />
                        </g>
                        <g data-id="s166f3u6" data-class="stem" class="stem">
                           <g data-id="bbox-s166f3u6" data-class="stem" class="stem bounding-box">
                              <rect x="9777" y="949" height="402" width="14" fill="transparent" />
                           </g>
                           <path d="M9784 956 L9784 1344" stroke="currentColor" stroke-width="14" />
                        </g>
                     </g>
                  </g>
               </g>
               <g data-id="b6vavg0" data-class="barLine" class="barLine">
                  <g data-id="bbox-b6vavg0" data-class="barLine" class="barLine bounding-box">
                     <rect x="11143" y="419" height="603" width="27" fill="transparent" />
                  </g>
                  <path d="M11157 432 L11157 1008" stroke="currentColor" stroke-width="27" />
               </g>
            </g>
            <g data-id="x8cd1a60d-2286-4da8-bbd8-bc33b3b91b45" data-class="measure" class="measure">
               <g data-id="bbox-x8cd1a60d-2286-4da8-bbd8-bc33b3b91b45" data-class="measure" class="measure bounding-box" />
               <g data-id="xca164c74-f771-4415-8b78-ec59aed389fa" data-class="staff" class="staff">
                  <g data-id="bbox-xca164c74-f771-4415-8b78-ec59aed389fa" data-class="staff" class="staff bounding-box">
                     <rect x="11165" y="427" height="586" width="2927" fill="transparent" />
                  </g>
                  <path d="M11170 432 L14087 432" stroke="currentColor" stroke-width="10" />
                  <path d="M11170 576 L14087 576" stroke="currentColor" stroke-width="10" />
                  <path d="M11170 720 L14087 720" stroke="currentColor" stroke-width="10" />
                  <path d="M11170 864 L14087 864" stroke="currentColor" stroke-width="10" />
                  <path d="M11170 1008 L14087 1008" stroke="currentColor" stroke-width="10" />
                  <g data-id="xe841380f-eb2a-479a-a594-f0caca6af888" data-class="layer" class="layer">
                     <g data-id="bbox-xe841380f-eb2a-479a-a594-f0caca6af888" data-class="layer" class="layer bounding-box" />
                     <g data-id="x899e9a39-b1b0-4a91-b50e-e3890527ebe8" data-class="note" class="note">
                        <g data-id="bbox-x899e9a39-b1b0-4a91-b50e-e3890527ebe8" data-class="note" class="note bounding-box">
                           <rect x="11314" y="715" height="153" width="180" fill="transparent" />
                        </g>
                        <g data-class="notehead" class="notehead">
                           <use href="#E0A4-13lfxwh" x="11314" y="792" height="576px" width="576px" />
                        </g>
                        <g data-id="s1dlf2pd" data-class="stem" class="stem">
                           <g data-id="bbox-s1dlf2pd" data-class="stem" class="stem bounding-box">
                              <rect x="11480" y="281" height="496" width="14" fill="transparent" />
                           </g>
                           <path d="M11487 770 L11487 288" stroke="currentColor" stroke-width="14" />
                        </g>
                        <g data-id="x87b068ee-ee6f-4c89-bedf-06b8d58c8c7f" data-class="accid" class="accid">
                           <g data-id="bbox-x87b068ee-ee6f-4c89-bedf-06b8d58c8c7f" data-class="accid" class="accid bounding-box">
                              <rect x="11314" y="792" height="0" width="0" fill="transparent" />
                           </g>
                        </g>
                     </g>
                     <g data-id="x33692032-5c94-4e14-887e-ec1e937930e4" data-class="note" class="note">
                        <g data-id="bbox-x33692032-5c94-4e14-887e-ec1e937930e4" data-class="note" class="note bounding-box">
                           <rect x="12004" y="787" height="153" width="180" fill="transparent" />
                        </g>
                        <g data-class="notehead" class="notehead">
                           <use href="#E0A4-13lfxwh" x="12004" y="864" height="576px" width="576px" />
                        </g>
                        <g data-id="s1ys332z" data-class="stem" class="stem">
                           <g data-id="bbox-s1ys332z" data-class="stem" class="stem bounding-box">
                              <rect x="12170" y="353" height="496" width="14" fill="transparent" />
                           </g>
                           <path d="M12177 842 L12177 360" stroke="currentColor" stroke-width="14" />
                        </g>
                     </g>
                     <g data-id="xdd39d53b-c6d1-4a93-81cd-3e89f4eee87c" data-class="note" class="note">
                        <g data-id="bbox-xdd39d53b-c6d1-4a93-81cd-3e89f4eee87c" data-class="note" class="note bounding-box">
                           <rect x="12694" y="787" height="153" width="180" fill="transparent" />
                        </g>
                        <g data-class="notehead" class="notehead">
                           <use href="#E0A4-13lfxwh" x="12694" y="864" height="576px" width="576px" />
                        </g>
                        <g data-id="ss8ai7k" data-class="stem" class="stem">
                           <g data-id="bbox-ss8ai7k" data-class="stem" class="stem bounding-box">
                              <rect x="12860" y="353" height="496" width="14" fill="transparent" />
                           </g>
                           <path d="M12867 842 L12867 360" stroke="currentColor" stroke-width="14" />
                        </g>
                     </g>
                     <g data-id="xd6087d3d-76a5-4e98-a746-f32265462387" data-class="note" class="note">
                        <g data-id="bbox-xd6087d3d-76a5-4e98-a746-f32265462387" data-class="note" class="note bounding-box">
                           <rect x="13384" y="787" height="153" width="180" fill="transparent" />
                        </g>
                        <g data-class="notehead" class="notehead">
                           <use href="#E0A4-13lfxwh" x="13384" y="864" height="576px" width="576px" />
                        </g>
                        <g data-id="s1q3ryrp" data-class="stem" class="stem">
                           <g data-id="bbox-s1q3ryrp" data-class="stem" class="stem bounding-box">
                              <rect x="13550" y="353" height="496" width="14" fill="transparent" />
                           </g>
                           <path d="M13557 842 L13557 360" stroke="currentColor" stroke-width="14" />
                        </g>
                     </g>
                  </g>
                  <g data-id="x741c57a0-f447-4af1-99e6-78a8f5169b75" data-class="layer" class="layer">
                     <g data-id="bbox-x741c57a0-f447-4af1-99e6-78a8f5169b75" data-class="layer" class="layer bounding-box" />
                     <g data-id="xcbab1cd3-c45b-4375-8500-1c21ff988bb5" data-class="note" class="note">
                        <g data-id="bbox-xcbab1cd3-c45b-4375-8500-1c21ff988bb5" data-class="note" class="note bounding-box">
                           <rect x="11314" y="1001" height="155" width="180" fill="transparent" />
                        </g>
                        <g data-class="notehead" class="notehead">
                           <use href="#E0A3-13lfxwh" x="11314" y="1080" height="576px" width="576px" />
                        </g>
                        <g data-id="s1v2si0a" data-class="stem" class="stem">
                           <g data-id="bbox-s1v2si0a" data-class="stem" class="stem bounding-box">
                              <rect x="11314" y="1093" height="354" width="14" fill="transparent" />
                           </g>
                           <path d="M11321 1100 L11321 1440" stroke="currentColor" stroke-width="14" />
                        </g>
                     </g>
                     <g data-id="x1d91d381-048b-485a-9f79-c7409bbc84e2" data-class="note" class="note">
                        <g data-id="bbox-x1d91d381-048b-485a-9f79-c7409bbc84e2" data-class="note" class="note bounding-box">
                           <rect x="12694" y="929" height="155" width="180" fill="transparent" />
                        </g>
                        <g data-class="notehead" class="notehead">
                           <use href="#E0A3-13lfxwh" x="12694" y="1008" height="576px" width="576px" />
                        </g>
                        <g data-id="svyvy56" data-class="stem" class="stem">
                           <g data-id="bbox-svyvy56" data-class="stem" class="stem bounding-box">
                              <rect x="12694" y="1021" height="378" width="14" fill="transparent" />
                           </g>
                           <path d="M12701 1028 L12701 1392" stroke="currentColor" stroke-width="14" />
                        </g>
                        <g data-id="xcca725c7-3063-40c2-9843-3ce049cbe266" data-class="accid" class="accid">
                           <g data-id="bbox-xcca725c7-3063-40c2-9843-3ce049cbe266" data-class="accid" class="accid bounding-box">
                              <rect x="12544" y="738" height="370" width="114" fill="transparent" />
                           </g>
                           <use href="#E260-13lfxwh" x="12544" y="1008" height="576px" width="576px" />
                        </g>
                     </g>
                  </g>
               </g>
               <g data-id="b1h6ee1q" data-class="barLine" class="barLine">
                  <g data-id="bbox-b1h6ee1q" data-class="barLine" class="barLine bounding-box">
                     <rect x="14060" y="419" height="603" width="27" fill="transparent" />
                  </g>
                  <path d="M14074 432 L14074 1008" stroke="currentColor" stroke-width="27" />
               </g>
            </g>
            <g data-id="smj5g3x" data-class="systemMilestoneEnd" class="systemMilestoneEnd x2f48e266-c3ef-4271-86c5-655dbbf0787d" />
         </g>
         <g data-id="p2c5o10" data-class="pageMilestoneEnd" class="pageMilestoneEnd s1dj40yt">
            <g data-id="bbox-p2c5o10" data-class="pageMilestoneEnd" class="pageMilestoneEnd bounding-box" />
         </g>
         <g data-id="p19v42v7" data-class="pageMilestoneEnd" class="pageMilestoneEnd x21582c08-3ece-48c9-9095-b5ff4a5f63f0">
            <g data-id="bbox-p19v42v7" data-class="pageMilestoneEnd" class="pageMilestoneEnd bounding-box" />
         </g>
      </g>
   </svg>
</svg>
